<?xml version="1.0" standalone="no"?>
<!DOCTYPE svg PUBLIC "-//W3C//DTD SVG 20010904//EN"
 "http://www.w3.org/TR/2001/REC-SVG-20010904/DTD/svg10.dtd">
<svg version="1.0" xmlns="http://www.w3.org/2000/svg"
 width="500.000000pt" height="500.000000pt" viewBox="0 0 500.000000 500.000000"
 preserveAspectRatio="xMidYMid meet">

<g transform="translate(0.000000,500.000000) scale(0.100000,-0.100000)"
fill="#000000" stroke="none">
<path d="M2257 4794 c-39 -12 -67 -35 -155 -122 -159 -157 -228 -260 -300
-446 -32 -83 -71 -194 -87 -246 -17 -54 -39 -105 -52 -119 -13 -13 -23 -32
-23 -42 0 -9 -9 -38 -20 -63 -25 -59 -102 -358 -129 -501 -9 -46 -27 -81 -59
-112 -13 -13 -20 -23 -16 -23 4 0 -10 -17 -31 -37 -64 -64 -89 -131 -91 -246
-1 -54 -5 -101 -8 -104 -11 -11 -6 -23 8 -23 12 0 12 -7 3 -37 -6 -21 -18 -47
-28 -58 -9 -11 -24 -35 -34 -54 -9 -18 -40 -57 -68 -86 -49 -49 -56 -62 -105
-206 -29 -85 -89 -268 -132 -407 -92 -289 -246 -721 -297 -832 -37 -80 -63
-154 -63 -182 0 -29 65 -93 129 -127 33 -17 63 -36 66 -42 10 -15 -12 -72 -93
-244 -41 -88 -99 -222 -128 -298 l-52 -137 266 2 267 3 101 202 c55 110 129
248 163 306 34 58 65 122 68 143 7 45 38 94 59 94 18 0 18 -5 -7 -130 -18 -90
-20 -126 -14 -250 4 -80 10 -161 15 -180 4 -19 11 -70 15 -113 l7 -77 726 0
727 0 55 29 c136 72 222 105 251 96 12 -4 19 -23 24 -61 4 -34 12 -57 21 -61
23 -9 24 -1 9 52 -21 66 -19 85 5 85 12 0 31 7 44 15 23 15 24 15 45 -28 12
-24 21 -51 21 -60 0 -9 5 -19 10 -22 6 -4 10 13 10 44 0 42 3 51 18 52 116 7
128 6 140 -19 9 -20 9 -27 -3 -36 -7 -6 -17 -28 -20 -49 l-7 -37 248 0 c273 1
271 0 163 55 -47 24 -63 48 -74 109 -4 19 -13 40 -20 46 -15 13 -82 16 -115 5
-14 -5 -42 -8 -62 -8 -33 0 -38 -2 -38 -23 0 -12 -5 -26 -10 -29 -6 -4 -8 -10
-6 -14 3 -4 -4 -12 -15 -19 -11 -7 -19 -8 -19 -2 0 5 4 10 8 10 5 0 7 13 4 29
-2 16 1 32 7 35 7 5 8 14 2 24 -4 9 -11 42 -15 73 -5 53 -4 57 25 85 30 28 31
32 26 92 -4 50 -15 84 -56 165 -40 80 -51 112 -51 149 l0 47 81 42 c87 45 118
81 120 134 1 71 12 72 60 9 25 -32 60 -69 79 -81 19 -12 43 -28 53 -35 18 -13
105 -206 178 -393 34 -88 94 -282 114 -370 3 -16 13 -54 21 -82 13 -45 19 -53
40 -53 22 0 24 4 24 49 0 31 -5 53 -15 61 -8 7 -15 24 -15 39 0 14 -7 51 -16
81 -8 30 -20 71 -25 90 -6 19 -12 46 -14 60 -9 55 -35 143 -47 158 -7 8 -12
18 -11 21 5 11 -8 41 -17 41 -5 0 -19 20 -31 45 -13 25 -31 53 -41 62 -10 9
-18 26 -18 38 0 12 -10 37 -23 56 -32 47 -107 235 -107 268 0 98 135 172 339
187 88 6 155 -8 184 -38 10 -10 37 -90 52 -153 7 -31 2 168 -6 210 -17 96 -61
311 -79 390 -11 44 -22 93 -25 108 -3 16 -23 47 -44 70 -51 57 -59 73 -82 180
-11 51 -39 153 -64 227 -24 74 -49 162 -56 195 -16 84 -38 123 -131 228 -45
51 -103 119 -129 153 -38 47 -63 68 -115 94 -55 27 -69 39 -85 74 -10 22 -19
59 -19 81 0 45 -23 140 -39 158 -5 7 -15 35 -22 62 -7 28 -32 100 -56 160 -64
158 -81 210 -88 263 -24 180 -104 421 -203 617 -135 266 -275 404 -460 453
-65 18 -106 21 -272 20 -139 0 -209 -4 -243 -14z m253 -304 c0 -5 -2 -10 -4
-10 -3 0 -8 5 -11 10 -3 6 -1 10 4 10 6 0 11 -4 11 -10z m-34 -27 c12 -7 24
-9 28 -6 3 3 15 -2 25 -11 11 -10 27 -15 38 -12 12 4 30 -4 52 -25 19 -17 51
-42 73 -55 21 -13 38 -29 38 -34 0 -6 5 -10 12 -10 28 0 99 -44 115 -71 10
-16 34 -41 54 -55 59 -40 166 -175 200 -250 57 -127 87 -415 54 -517 -21 -68
-87 -180 -139 -238 -23 -25 -69 -82 -104 -126 -90 -115 -172 -154 -309 -149
-60 2 -78 7 -113 31 -23 16 -48 41 -56 57 -8 15 -20 28 -27 28 -7 0 -28 13
-47 30 -19 16 -41 29 -47 30 -7 0 -13 4 -13 10 0 12 -60 70 -72 70 -5 0 -6 -5
-3 -10 4 -6 -5 -5 -19 2 -14 6 -26 17 -26 25 0 7 -4 13 -9 13 -16 0 -24 42
-11 50 22 14 -7 89 -71 186 -27 43 -59 146 -59 195 0 17 6 37 14 45 8 7 16 19
18 26 4 10 15 10 57 0 29 -7 81 -12 117 -12 36 0 64 -4 64 -10 0 -5 14 -10 30
-10 52 0 120 93 120 163 0 19 7 40 15 47 17 14 21 11 101 -69 l34 -33 78 7
c82 7 160 35 188 66 24 26 17 29 -39 17 -48 -10 -69 -6 -51 11 5 5 49 21 97
36 87 26 89 27 82 53 -7 33 -45 68 -55 52 -5 -8 -21 -9 -45 -4 l-39 7 25 18
c13 10 31 25 39 33 8 8 27 17 42 21 23 6 26 10 17 26 -11 22 -77 26 -144 8
-22 -6 -58 -14 -80 -18 -63 -12 -204 -96 -205 -122 0 -24 -30 -46 -72 -54 -33
-6 -38 -4 -52 23 -19 36 -60 45 -211 44 -55 0 -104 2 -108 5 -4 2 3 13 16 23
15 12 27 34 30 56 4 22 19 50 38 70 23 24 30 38 24 51 -4 10 -7 30 -6 46 2 15
-2 27 -8 27 -6 0 -11 4 -11 9 0 11 48 59 85 86 15 11 46 37 69 59 22 21 50 42
61 46 28 10 76 7 101 -7z m324 -438 c0 -8 -4 -15 -10 -15 -5 0 -10 7 -10 15 0
8 5 15 10 15 6 0 10 -7 10 -15z m-630 -145 c0 -5 -4 -10 -10 -10 -5 0 -10 5
-10 10 0 6 5 10 10 10 6 0 10 -4 10 -10z m-31 -594 c25 -40 26 -46 5 -46 -12
0 -44 54 -44 75 0 16 21 1 39 -29z m566 -493 c0 -12 3 -25 8 -29 4 -4 7 -15 7
-25 0 -9 6 -20 13 -23 6 -3 3 -4 -9 -1 -12 3 -21 0 -22 -7 -8 -54 -20 -110
-21 -95 -1 14 -6 17 -21 12 -14 -5 -20 -2 -20 9 0 9 -4 16 -10 16 -5 0 -10 6
-10 13 0 8 -9 22 -20 32 -19 17 -19 19 -3 38 17 18 17 19 -6 16 -14 -3 -26 2
-29 10 -3 9 0 11 9 6 8 -5 5 1 -5 13 -19 22 -19 22 5 22 13 0 36 -11 51 -25
15 -14 37 -25 50 -25 l23 1 -22 18 c-27 23 -29 38 -5 44 27 7 37 2 37 -20z
m985 -955 c0 -36 -16 -54 -33 -40 -7 7 -16 9 -19 6 -3 -2 -8 3 -12 12 -4 12
-2 15 9 10 8 -3 15 0 16 7 0 9 2 9 6 0 8 -20 23 -15 23 7 0 11 2 20 5 20 3 0
5 -10 5 -22z m-333 -95 c-3 -10 -5 -4 -5 12 0 17 2 24 5 18 2 -7 2 -21 0 -30z
m-47 6 c0 -11 -4 -17 -10 -14 -5 3 -10 13 -10 21 0 8 5 14 10 14 6 0 10 -9 10
-21z m-103 -11 c-3 -8 -6 -5 -6 6 -1 11 2 17 5 13 3 -3 4 -12 1 -19z m440 -10
c-3 -8 -6 -5 -6 6 -1 11 2 17 5 13 3 -3 4 -12 1 -19z m-40 -30 c-3 -8 -6 -5
-6 6 -1 11 2 17 5 13 3 -3 4 -12 1 -19z m-27 2 c0 -5 -4 -10 -10 -10 -5 0 -10
5 -10 10 0 6 5 10 10 10 6 0 10 -4 10 -10z m-119 -17 c13 -16 12 -17 -3 -4
-10 7 -18 15 -18 17 0 8 8 3 21 -13z m-35 -8 c14 -13 13 -15 -5 -15 -12 0 -21
6 -21 15 0 8 3 15 6 15 3 0 12 -7 20 -15z m-1313 -42 c-7 -2 -19 -2 -25 0 -7
3 -2 5 12 5 14 0 19 -2 13 -5z m563 -235 c-30 -183 -37 -233 -43 -305 -5 -78
-5 -83 21 -113 14 -17 26 -36 26 -42 0 -5 5 -8 12 -6 12 4 40 111 42 163 0 17
10 39 22 51 12 12 24 40 28 64 10 65 32 100 62 100 29 0 29 0 -5 -88 -21 -53
-21 -54 -2 -59 24 -6 17 -29 -10 -36 -18 -5 -47 -59 -79 -148 -13 -36 -7 -89
9 -89 12 0 54 73 84 147 44 108 99 163 165 163 95 0 41 -125 -75 -177 -50 -21
-53 -25 -53 -58 0 -45 17 -52 67 -26 61 31 110 88 161 189 l47 93 35 -4 c19
-2 50 3 69 10 86 36 103 -13 46 -127 -53 -105 -45 -131 20 -61 20 21 50 60 67
87 17 27 40 58 52 70 11 11 38 42 59 68 28 34 45 46 60 44 19 -3 22 -9 21 -51
0 -40 -6 -53 -34 -82 -18 -19 -49 -40 -67 -46 -36 -12 -56 -39 -47 -63 9 -24
30 -26 70 -6 54 28 53 18 -2 -19 -55 -36 -93 -39 -119 -11 -19 21 -19 20 -54
-14 -42 -39 -72 -56 -100 -56 -34 0 -31 39 10 129 16 35 29 72 29 82 0 68 -83
-14 -150 -149 l-52 -104 -36 4 c-26 2 -55 -6 -95 -26 -49 -24 -62 -27 -82 -18
-14 7 -25 19 -25 28 0 32 -25 7 -39 -39 -8 -26 -20 -47 -26 -47 -16 0 -39 28
-55 68 -10 25 -18 32 -39 32 -38 0 -43 -6 -91 -95 -99 -182 -175 -275 -225
-275 -14 0 -48 -9 -77 -20 -66 -25 -79 -25 -112 1 -47 37 -35 52 69 94 53 21
106 46 119 56 36 28 169 226 161 239 -8 12 -121 -8 -162 -28 -46 -24 -53 -21
-53 23 0 72 74 113 179 100 30 -4 60 -9 68 -12 17 -7 46 62 39 91 -3 12 -1 39
4 61 6 25 5 44 0 49 -6 6 -12 -2 -16 -23 -4 -17 -12 -30 -18 -28 -14 5 -20 55
-8 70 5 7 21 50 37 97 36 112 41 120 72 120 25 0 25 -2 19 -42z m945 -291
c-13 -13 -15 31 -3 60 5 14 8 10 10 -16 2 -18 -1 -38 -7 -44z m-41 -105 c0
-11 -93 -70 -136 -85 -22 -8 -96 -35 -165 -61 -70 -25 -129 -46 -133 -46 -3 0
-49 -16 -101 -36 -84 -32 -95 -39 -95 -61 0 -63 -47 -96 -176 -122 -54 -10
-121 -22 -149 -26 -54 -7 -87 -22 -152 -66 -59 -41 -61 -36 -7 21 26 27 69 79
95 114 l49 64 67 7 c104 9 115 14 158 59 22 24 51 47 65 51 14 4 30 11 36 16
6 5 53 16 105 23 52 8 117 22 144 30 28 8 117 33 200 56 82 23 158 48 169 56
24 16 26 17 26 6z"/>
<path d="M2733 3620 c19 -49 -6 -83 -70 -95 -28 -5 -59 -17 -69 -26 -32 -28
-69 -29 -101 -3 -33 27 -68 32 -59 9 4 -10 -2 -19 -17 -24 -29 -11 -42 -5 -56
25 -15 34 -5 67 27 87 17 10 21 17 12 17 -28 0 -86 -73 -128 -161 -46 -97 -46
-123 1 -193 15 -21 27 -47 27 -56 0 -10 10 -27 23 -39 98 -91 123 -111 138
-111 10 0 21 -5 24 -10 9 -15 27 -1 21 16 -3 7 -1 16 5 20 15 9 -9 34 -27 27
-9 -3 -14 1 -14 12 0 12 5 15 23 10 38 -12 42 -11 42 14 0 18 8 27 29 34 18 6
31 6 38 -1 7 -7 16 -4 30 10 12 12 26 17 38 13 13 -4 30 5 57 30 l38 36 18
-22 18 -22 32 32 c17 18 33 28 35 22 8 -23 20 -10 18 20 0 19 5 34 13 37 11 4
13 -3 8 -34 -4 -23 -3 -33 2 -25 6 9 10 10 16 2 4 -7 2 -18 -5 -26 -7 -8 -7
-15 -1 -19 12 -7 14 -3 29 49 6 22 18 63 26 92 27 90 21 108 -59 158 -16 10
-50 37 -75 60 -48 45 -80 65 -103 65 -13 0 -13 -5 -4 -30z m80 -139 c38 -34
35 -57 -9 -71 -40 -13 -88 -6 -80 13 2 7 10 38 17 71 13 57 14 58 29 35 8 -13
27 -34 43 -48z m-13 -106 c6 -8 9 -23 5 -35 -5 -17 -13 -21 -31 -17 -16 3 -24
0 -24 -10 0 -7 -8 -16 -17 -20 -10 -3 -29 -14 -43 -23 -14 -10 -38 -20 -55
-24 -43 -11 -127 -7 -142 6 -8 6 -16 8 -20 4 -9 -9 -43 24 -43 42 0 10 8 13
25 10 14 -3 28 -1 31 3 3 5 16 9 29 9 13 0 27 5 31 11 3 6 19 9 34 5 17 -3 33
0 39 8 7 8 33 13 67 13 38 0 61 5 72 17 20 20 26 20 42 1z"/>
<path d="M2180 3210 c0 -5 5 -10 10 -10 6 0 10 5 10 10 0 6 -4 10 -10 10 -5 0
-10 -4 -10 -10z"/>
<path d="M2728 3189 c-10 -5 -18 -14 -18 -19 0 -17 26 -11 45 10 20 22 4 28
-27 9z"/>
<path d="M2730 3110 c0 -5 4 -10 9 -10 6 0 13 5 16 10 3 6 -1 10 -9 10 -9 0
-16 -4 -16 -10z"/>
<path d="M2530 3055 c0 -16 4 -25 8 -19 11 17 53 24 74 13 32 -17 44 -5 20 19
-17 17 -32 22 -62 20 -37 -3 -40 -5 -40 -33z"/>
<path d="M2683 3065 c-12 -27 -7 -30 35 -19 12 4 22 14 22 23 0 28 -43 24 -57
-4z"/>
<path d="M2670 2729 c0 -5 5 -7 10 -4 6 3 10 8 10 11 0 2 -4 4 -10 4 -5 0 -10
-5 -10 -11z"/>
<path d="M3496 1210 c-27 -55 -32 -70 -20 -70 38 0 98 99 79 130 -12 20 -24 9
-59 -60z"/>
<path d="M2958 1143 c-30 -33 -61 -90 -56 -105 9 -26 108 86 108 122 0 19 -26
10 -52 -17z"/>
<path d="M4541 890 c0 -8 7 -33 15 -55 15 -40 57 -156 90 -250 9 -27 22 -61
27 -75 6 -14 11 -27 12 -30 1 -3 7 -18 13 -33 7 -16 12 -36 12 -45 0 -25 30
-105 45 -122 7 -8 17 -32 20 -53 4 -21 13 -41 19 -43 6 -2 12 -22 13 -43 1
-21 13 -61 25 -89 19 -44 27 -52 50 -52 l26 0 -43 122 c-74 213 -175 463 -260
643 -8 17 -25 55 -39 85 -14 30 -25 48 -25 40z"/>
</g>
</svg>
