<?xml version="1.0" encoding="UTF-8" standalone="no"?>
<!-- Created with Inkscape (http://www.inkscape.org/) -->

<svg
   xmlns:dc="http://purl.org/dc/elements/1.1/"
   xmlns:cc="http://creativecommons.org/ns#"
   xmlns:rdf="http://www.w3.org/1999/02/22-rdf-syntax-ns#"
   xmlns:svg="http://www.w3.org/2000/svg"
   xmlns="http://www.w3.org/2000/svg"
   xmlns:sodipodi="http://sodipodi.sourceforge.net/DTD/sodipodi-0.dtd"
   xmlns:inkscape="http://www.inkscape.org/namespaces/inkscape"
   width="269.93021"
   height="261.39676"
   viewBox="0 0 269.93021 261.39677"
   id="svg2"
   version="1.1"
   inkscape:version="0.91 r13725"
   sodipodi:docname="Philippine Statistics Authority.svg">
  <defs
     id="defs4" />
  <sodipodi:namedview
     id="base"
     pagecolor="#ffffff"
     bordercolor="#666666"
     borderopacity="1.0"
     inkscape:pageopacity="0.0"
     inkscape:pageshadow="2"
     inkscape:zoom="1.4958106"
     inkscape:cx="176.41421"
     inkscape:cy="91.589159"
     inkscape:document-units="px"
     inkscape:current-layer="layer1"
     showgrid="false"
     showguides="true"
     fit-margin-top="0"
     fit-margin-left="0"
     fit-margin-right="0"
     fit-margin-bottom="0"
     inkscape:window-width="1366"
     inkscape:window-height="705"
     inkscape:window-x="-4"
     inkscape:window-y="-4"
     inkscape:window-maximized="1"
     units="px" />
  <metadata
     id="metadata7">
    <rdf:RDF>
      <cc:Work
         rdf:about="">
        <dc:format>image/svg+xml</dc:format>
        <dc:type
           rdf:resource="http://purl.org/dc/dcmitype/StillImage" />
        <dc:title></dc:title>
      </cc:Work>
    </rdf:RDF>
  </metadata>
  <g
     inkscape:label="Layer 1"
     inkscape:groupmode="layer"
     id="layer1"
     transform="translate(32.455254,-34.200134)">
    <ellipse
       style="fill:#ffffff;fill-opacity:1;stroke:none;stroke-width:0.84332281;stroke-linecap:square;stroke-linejoin:bevel;stroke-miterlimit:4;stroke-dasharray:none;stroke-dashoffset:0;stroke-opacity:1"
       id="path4680"
       cx="102.50985"
       cy="164.89851"
       rx="134.9651"
       ry="130.69838" />
    <path
       style="fill:#9c9a9d;fill-opacity:1;fill-rule:evenodd;stroke:none;stroke-width:1px;stroke-linecap:butt;stroke-linejoin:miter;stroke-opacity:1"
       d="M 101.96148,265.55428 C 65.660711,212.62109 59.403497,164.58944 89.663898,99.985368 49.148108,148.92323 59.657785,227.31753 96.900853,264.90458 Z"
       id="path4147"
       inkscape:connector-curvature="0"
       sodipodi:nodetypes="cccc" />
    <path
       style="fill:#9c9a9d;fill-opacity:1;fill-rule:evenodd;stroke:none;stroke-width:1px;stroke-linecap:butt;stroke-linejoin:miter;stroke-opacity:1"
       d="M 134.36916,260.39373 C 111.97739,218.62126 104.76032,173.91247 99.413504,131.02018 97.89895,120.17556 94.957013,99.550946 94.957013,99.550946 c 0,0 -0.402918,16.147454 0,24.207104 2.000007,46.61459 10.053577,101.31706 36.626837,137.4762 z"
       id="path4151"
       inkscape:connector-curvature="0"
       sodipodi:nodetypes="cccccc" />
    <path
       style="fill:#9c9a9d;fill-opacity:1;fill-rule:evenodd;stroke:none;stroke-width:1px;stroke-linecap:butt;stroke-linejoin:miter;stroke-opacity:1"
       d="M 98.020849,99.281962 C 144.82239,150.29039 155.73401,209.7534 154.84121,251.14796 l 4.17796,-2.99227 C 160.13319,180.52759 134.26985,128.12233 98.020849,99.281962 Z"
       id="path4153"
       inkscape:connector-curvature="0"
       sodipodi:nodetypes="cccc" />
    <path
       style="fill:#9c9a9d;fill-opacity:1;fill-rule:evenodd;stroke:none;stroke-width:1px;stroke-linecap:butt;stroke-linejoin:miter;stroke-opacity:1"
       d="m 181.37129,226.30206 5.77953,-8.67422 c 2.95953,-58.92399 -19.79157,-97.10796 -62.66951,-114.04238 l -19.49718,-5.379361 c 73.27602,26.416631 79.76163,81.485481 76.38716,128.095961 z"
       id="path4155"
       inkscape:connector-curvature="0"
       sodipodi:nodetypes="ccccc" />
    <path
       style="fill:#9c9a9d;fill-opacity:1;fill-rule:evenodd;stroke:none;stroke-width:1px;stroke-linecap:square;stroke-linejoin:bevel;stroke-opacity:1"
       d="m 156.30349,96.659542 c -11.19477,-9.72491 -37.27992,-5.201586 -58.561168,-3.29486 22.056668,1.208743 39.795688,-2.295833 58.561168,3.29486 z"
       id="path4157"
       inkscape:connector-curvature="0"
       sodipodi:nodetypes="ccc" />
    <path
       style="fill:#9c9a9d;fill-opacity:1;fill-rule:evenodd;stroke:none;stroke-width:1px;stroke-linecap:butt;stroke-linejoin:miter;stroke-opacity:1"
       d="m 108.23507,81.190566 c 0,0 14.54758,1.383714 20.87684,4.564532 5.11218,2.569162 11.43651,5.814408 12.80183,11.221145 1.60923,6.372577 -2.75811,13.396237 -7.09024,18.448347 -5.67279,6.61557 -14.48857,10.37444 -22.84634,13.31322 -8.36712,2.94206 -17.500899,4.47511 -26.391482,3.99397 -7.967938,-0.43121 -23.090375,-6.10912 -23.090375,-6.10912 l -7.634008,-8.91581 c 0,0 17.273126,6.55291 26.391457,7.41737 7.476943,0.70886 15.244331,0.14352 22.452458,-1.90189 8.25517,-2.34253 16.92418,-5.57399 22.84634,-11.60152 3.78082,-3.8481 7.69082,-9.20608 6.89329,-14.454369 -0.64829,-4.266195 -5.21093,-7.218484 -8.86281,-9.69964 -4.79581,-3.258354 -16.34696,-6.276235 -16.34696,-6.276235 z"
       id="path4187"
       inkscape:connector-curvature="0"
       sodipodi:nodetypes="casssaccaaaaac" />
    <path
       style="fill:#9c9a9d;fill-opacity:1;fill-rule:evenodd;stroke:none;stroke-width:1px;stroke-linecap:butt;stroke-linejoin:miter;stroke-opacity:1"
       d="m 151.3674,93.552854 c 9.06487,4.818637 14.53633,8.960926 15.95304,18.828706 1.27337,37.8535 -54.65038,55.92762 -84.295128,54.77444 -12.48642,-0.28054 -36.829877,-6.65661 -36.829877,-6.65661 l 4.923783,-12.3623 c 0,0 6.666808,3.3361 10.241461,4.37435 35.662925,10.08521 78.123161,-5.15568 94.733551,-27.38722 6.93594,-12.37668 6.67142,-22.78836 -4.72683,-31.571366 z"
       id="path4189"
       inkscape:connector-curvature="0"
       sodipodi:nodetypes="cccccccc" />
    <path
       style="fill:#9c9a9d;fill-opacity:1;fill-rule:evenodd;stroke:none;stroke-width:1px;stroke-linecap:butt;stroke-linejoin:miter;stroke-opacity:1"
       d="m 43.241164,183.89262 c 53.591049,20.41977 144.944486,-4.26305 141.017086,-60.4801 l 5.26,9.10601 C 183.12917,198.07767 79.47854,212.14865 41.271655,193.0217 Z"
       id="path4191"
       inkscape:connector-curvature="0"
       sodipodi:nodetypes="ccccc" />
    <path
       style="fill:#9c9a9d;fill-opacity:1;fill-rule:evenodd;stroke:none;stroke-width:1px;stroke-linecap:butt;stroke-linejoin:miter;stroke-opacity:1"
       d="m 43.985817,218.43474 c 46.567928,27.21764 146.059043,7.71487 154.584763,-58.635 0,0 1.79405,8.87382 1.07932,13.58288 -15.30584,62.63582 -103.413129,80.42486 -152.600242,53.12117 z"
       id="path4193"
       inkscape:connector-curvature="0"
       sodipodi:nodetypes="ccccc" />
    <path
       style="fill:none;fill-rule:evenodd;stroke:#9c9a9d;stroke-width:0.52995187px;stroke-linecap:butt;stroke-linejoin:miter;stroke-opacity:1"
       d="m 99.44181,80.724005 c 0,0 26.47906,1.361825 38.47964,6.213437 15.23655,6.159851 29.56485,15.822408 40.15266,28.095538 53.35548,67.14213 -1.93345,138.99298 -51.72521,147.37064 -16.71943,3.9076 -32.331761,2.34379 -32.331761,2.34379"
       id="path4197"
       inkscape:connector-curvature="0"
       sodipodi:nodetypes="caccc" />
    <path
       style="fill:#0038a8;fill-opacity:1;fill-rule:evenodd;stroke:none;stroke-width:1px;stroke-linecap:butt;stroke-linejoin:miter;stroke-opacity:1"
       d="M 127.19812,262.22874 C 9.4536767,285.16098 -14.937855,127.48233 91.566923,110.6783 c 1.656626,3.90376 1.229687,1.1458 4.969879,12.09166 L 118.20143,82.123868 74.007163,69.014339 77.876907,79.083164 C -49.601369,121.56824 5.7692472,289.43144 127.19812,262.22874 Z"
       id="path4199-2"
       inkscape:connector-curvature="0"
       sodipodi:nodetypes="ccccccc" />
    <path
       style="fill:#fcd116;fill-opacity:1;fill-rule:evenodd;stroke:none;stroke-width:1px;stroke-linecap:butt;stroke-linejoin:miter;stroke-opacity:1"
       d="M 126.85888,262.02855 C 59.874271,280.15432 0.48788499,202.56633 75.480467,141.25808 l 7.611817,5.78281 2.170552,-28.91406 -37.597597,-3.16794 7.611815,8.042 c -71.066241,55.26365 -16.441613,161.49705 71.581826,139.02766 z"
       id="path4199-1"
       inkscape:connector-curvature="0"
       sodipodi:nodetypes="ccccccc" />
    <path
       style="fill:#ce1126;fill-opacity:1;fill-rule:evenodd;stroke:none;stroke-width:1px;stroke-linecap:butt;stroke-linejoin:miter;stroke-opacity:1"
       d="M 126.74437,262.07478 C 56.662129,278.5406 35.007103,207.28455 71.00333,175.2654 l 6.74244,5.24487 -0.196954,-26.76229 -31.195493,1.34483 6.824016,7.40617 c -34.517291,47.04962 2.557677,116.88865 73.567031,99.5758 z"
       id="path4199"
       inkscape:connector-curvature="0"
       sodipodi:nodetypes="ccccccc" />
    <ellipse
       style="fill:none;fill-opacity:1;stroke:none;stroke-width:2.58457613;stroke-linecap:square;stroke-linejoin:bevel;stroke-miterlimit:4;stroke-dasharray:none;stroke-dashoffset:0;stroke-opacity:1"
       id="path4290"
       transform="matrix(-0.99713261,0.07567408,-0.07754668,-0.99698872,0,0)"
       ry="115.71416"
       rx="114.83389"
       cy="-175.99794"
       cx="-88.481911" />
    <g
       style="font-style:normal;font-variant:normal;font-weight:bold;font-stretch:normal;font-size:37.5px;line-height:125%;font-family:'Trajan Pro';-inkscape-font-specification:'Trajan Pro Bold';text-align:start;letter-spacing:0px;word-spacing:0px;writing-mode:lr-tb;text-anchor:start;fill:#000000;fill-opacity:1;stroke:none;stroke-width:0.69999999;stroke-linecap:butt;stroke-linejoin:miter;stroke-miterlimit:4;stroke-dasharray:none;stroke-opacity:1"
       id="text4292"
       transform="matrix(0.53781406,0,0,0.51934849,-84.974094,-40.850294)">
      <path
         d="m 121.79682,413.01597 c 4.07941,-0.0694 7.43643,-0.12651 9.22478,0.0556 1.23522,0.14901 2.1737,0.34558 2.35813,1.19256 0.0915,0.381 0.18516,0.88948 0.19166,1.27193 0.004,0.25496 0.13327,0.33778 0.26075,0.33561 0.25496,-0.004 0.33633,-0.21825 0.32838,-0.68568 -0.0217,-1.27482 -0.19471,-3.94976 -0.19688,-4.07724 -0.004,-0.21247 0.0783,-2.89175 0.0386,-5.22892 -0.008,-0.46743 -0.13905,-0.67773 -0.35151,-0.67411 -0.12749,0.002 -0.25352,0.0893 -0.24918,0.34428 0.006,0.38245 -0.0626,1.31876 -0.13745,1.91512 -0.14829,1.27771 -1.07882,1.54857 -2.30897,1.69702 -1.78113,0.24283 -5.13814,0.29993 -9.21755,0.36933 l -17.46498,0.2971 c -0.42493,0.007 -0.72384,-0.0727 -0.81316,-0.32621 -0.17648,-0.37956 -0.27376,-1.10051 -0.28605,-1.8229 -0.0166,-0.97736 -0.2307,-3.56659 2.02566,-5.8578 2.25636,-2.29121 5.10128,-2.46713 6.50357,-2.49098 3.90944,-0.0665 6.98144,3.1117 7.05156,7.2336 0.0152,0.89238 0.062,1.14662 0.40196,1.14083 0.21247,-0.004 0.29312,-0.26002 0.28951,-0.47249 0.0389,-0.21319 0.0309,-0.68062 0.0273,-0.89309 -0.10265,-6.03413 -4.25724,-10.38409 -10.29137,-10.28145 -2.25217,0.0383 -4.14415,1.26067 -5.02062,2.21072 -0.62584,0.69074 -2.37805,2.63333 -2.28769,7.94506 0.0332,1.95472 0.20266,4.41719 0.21856,5.35206 0.006,0.33995 -0.0783,2.89175 -0.0458,4.80397 0.008,0.46743 0.0966,0.67846 0.35152,0.67412 0.16998,-0.003 0.25207,-0.17431 0.24918,-0.34429 -0.007,-0.38244 0.0237,-1.10556 0.1029,-1.44696 0.27361,-1.40736 0.94772,-1.75887 2.39107,-1.86844 1.35836,-0.10812 2.54818,-0.12836 9.17723,-0.24113 l 7.47891,-0.12722 z"
         style="font-size:42.5px"
         id="path4565"
         inkscape:connector-curvature="0" />
      <path
         d="m 120.91802,363.76618 c -5.2464,-0.59467 -6.2003,-0.70279 -7.26441,-0.90392 -1.18336,-0.21464 -1.63778,-0.46743 -1.73289,-1.4041 -0.0299,-0.44621 -0.007,-0.64494 0.0196,-0.88341 0.018,-0.15898 -0.12294,-0.33598 -0.24218,-0.3495 -0.19873,-0.0225 -0.30074,0.16719 -0.34579,0.56465 -0.11713,1.03338 -0.28993,3.26814 -0.31245,3.46687 -0.018,0.15898 -0.3543,2.41546 -0.53,3.96554 -0.045,0.39745 0.0164,0.56544 0.21515,0.58797 0.11924,0.0135 0.29174,-0.0877 0.30976,-0.24668 0.036,-0.31797 0.14336,-0.90964 0.21464,-1.18336 0.28963,-1.1346 0.86408,-1.23051 2.02571,-1.17935 1.07764,0.0819 2.11552,0.15927 7.36193,0.75394 l 0.71542,0.0811 c 0.19873,0.0225 0.18972,0.10201 0.1762,0.22125 l -1.65335,14.5866 c -0.0135,0.11923 -0.0225,0.19872 -0.22125,0.1762 l -0.71542,-0.0811 c -5.2464,-0.59467 -6.27979,-0.7118 -7.34841,-0.87318 -1.18335,-0.21464 -1.63777,-0.46743 -1.72838,-1.44384 -0.0344,-0.40647 -0.007,-0.64494 0.0196,-0.88342 0.0135,-0.11923 -0.12745,-0.29623 -0.24669,-0.30975 -0.19872,-0.0225 -0.29623,0.12745 -0.34128,0.5249 -0.12164,1.07313 -0.29443,3.30789 -0.31245,3.46687 -0.0225,0.19873 -0.3543,2.41547 -0.5345,4.00529 -0.045,0.39745 0.0164,0.56544 0.21515,0.58797 0.11923,0.0135 0.29624,-0.12745 0.30975,-0.24668 0.036,-0.31797 0.14336,-0.90965 0.21464,-1.18336 0.28963,-1.1346 0.86859,-1.27026 2.03022,-1.2191 1.08214,0.0421 2.03603,0.15026 7.28244,0.74493 l 5.96182,0.67575 c 3.25914,0.36942 5.92208,0.67125 7.29065,1.02766 0.97562,0.2716 1.60254,0.42318 1.68493,1.11687 0.0435,0.32697 0.0734,0.77318 0.0374,1.09115 -0.0225,0.19873 0.12745,0.29624 0.24668,0.30975 0.19873,0.0225 0.30075,-0.16719 0.34129,-0.5249 0.12164,-1.07313 0.25468,-3.31239 0.27721,-3.51112 0.018,-0.15898 0.38954,-2.37121 0.61028,-4.31874 0.0451,-0.39746 -0.0562,-0.56995 -0.21515,-0.58797 -0.11923,-0.0135 -0.28722,0.0479 -0.30975,0.24668 -0.036,0.31796 -0.20113,1.06412 -0.33918,1.5718 -0.27612,1.01536 -0.92556,1.06252 -1.93271,1.06913 -1.40911,10e-4 -3.99257,-0.29152 -7.2517,-0.66094 l -3.37837,-0.38292 c -0.15898,-0.018 -0.18972,-0.10202 -0.1762,-0.22126 l 1.65335,-14.58659 c 0.0135,-0.11924 0.0623,-0.19423 0.22125,-0.17621 l 3.37837,0.38293 c 3.25913,0.36941 5.80284,0.65774 7.17591,0.97439 0.98012,0.23187 1.64228,0.42769 1.72017,1.16113 0.0434,0.32697 0.0779,0.73344 0.0418,1.0514 -0.0225,0.19873 0.12745,0.29624 0.24669,0.30975 0.19872,0.0225 0.29624,-0.12744 0.34129,-0.5249 0.11713,-1.03338 0.25468,-3.31239 0.2727,-3.47137 0.0225,-0.19873 0.39404,-2.41096 0.61028,-4.31875 0.045,-0.39745 -0.0517,-0.60969 -0.21064,-0.62771 -0.11924,-0.0135 -0.28723,0.0479 -0.31426,0.28643 -0.0315,0.27821 -0.20113,1.06411 -0.33468,1.53205 -0.28062,1.05511 -0.92555,1.06252 -1.93271,1.06913 -1.40911,10e-4 -4.07656,-0.26079 -7.33569,-0.6302 l -5.96183,-0.67575 z"
         style="font-style:normal;font-variant:normal;font-weight:normal;font-stretch:normal;font-size:40px;font-family:'Trajan Pro';-inkscape-font-specification:'Trajan Pro';letter-spacing:-0.03px;fill:#000000;stroke:#000000;stroke-width:0.69999999;stroke-miterlimit:4;stroke-dasharray:none;stroke-opacity:1"
         id="path4567"
         inkscape:connector-curvature="0" />
      <path
         d="m 124.29121,347.64441 c -5.15619,-1.13669 -6.09368,-1.34337 -7.13975,-1.61493 -1.15463,-0.33647 -1.58032,-0.63511 -1.56896,-1.61566 0.008,-0.40784 0.0597,-0.64222 0.11132,-0.87659 0.0258,-0.11718 -0.096,-0.30788 -0.21315,-0.33371 -0.19531,-0.0431 -0.30788,0.096 -0.39399,0.48659 -0.23251,1.05467 -0.64523,3.29843 -0.67968,3.45468 -0.043,0.19531 -0.5948,2.3265 -0.84453,3.4593 -0.0861,0.39062 -0.0424,0.56409 0.15288,0.60715 0.11718,0.0258 0.29927,-0.0569 0.33371,-0.21315 0.0517,-0.23438 0.18546,-0.65545 0.34969,-1.02885 0.31987,-0.70773 0.88795,-0.86922 2.03797,-0.69761 1.0719,0.15438 2.00939,0.36105 7.16559,1.49775 l 5.85931,1.29169 c 3.20309,0.70613 5.81163,1.32215 7.14436,1.7798 0.95072,0.33247 1.54988,0.58744 1.55973,1.28594 0.009,0.32971 -0.007,0.77662 -0.0763,1.08912 -0.043,0.19531 0.096,0.30788 0.21316,0.33371 0.19531,0.0431 0.31649,-0.13503 0.39399,-0.48659 0.23251,-1.05468 0.58895,-3.22892 0.632,-3.42423 0.0344,-0.15625 0.64248,-2.35696 1.06443,-4.271 0.0861,-0.39062 0.003,-0.5727 -0.15287,-0.60714 -0.11719,-0.0258 -0.29066,0.0178 -0.33372,0.21315 -0.0689,0.3125 -0.31063,1.03745 -0.5007,1.52804 -0.38014,0.98117 -1.03097,0.96057 -2.03335,0.86247 -1.40162,-0.14514 -4.01878,-0.7221 -7.22187,-1.42823 l -5.85931,-1.2917 z"
         style="font-style:normal;font-variant:normal;font-weight:normal;font-stretch:normal;font-size:40px;font-family:'Trajan Pro';-inkscape-font-specification:'Trajan Pro';letter-spacing:-0.03px;fill:#000000;stroke:#000000;stroke-width:0.69999999;stroke-miterlimit:4;stroke-dasharray:none;stroke-opacity:1"
         id="path4569"
         inkscape:connector-curvature="0" />
      <path
         d="m 128.37289,332.19383 c -5.05017,-1.54083 -5.96838,-1.82098 -6.9897,-2.17441 -1.12442,-0.4267 -1.56342,-0.76975 -1.45122,-1.82284 0.0785,-0.39426 0.19196,-0.9033 0.262,-1.13286 0.035,-0.11477 -0.0331,-0.30283 -0.14784,-0.33785 -0.1913,-0.0584 -0.32618,0.10959 -0.43124,0.45392 -0.31517,1.03299 -1.00906,3.58142 -1.05575,3.73446 -0.0584,0.19129 -0.7769,2.27218 -1.24382,3.80254 -0.11673,0.38259 -0.0869,0.55897 0.10439,0.61733 0.11478,0.035 0.31451,-0.0713 0.34953,-0.1861 0.0934,-0.30607 0.30673,-0.86828 0.4267,-1.12442 0.49155,-1.06281 1.08554,-1.09069 2.2184,-0.82869 1.05633,0.23865 1.97455,0.5188 7.02472,2.05963 l 5.73883,1.75095 c 3.13723,0.95718 5.70057,1.73927 6.98127,2.33911 0.90978,0.44486 1.49858,0.70815 1.45317,1.40524 -0.0169,0.32942 -0.0687,0.77361 -0.16213,1.07968 -0.0584,0.1913 0.0713,0.31451 0.1861,0.34953 0.19129,0.0584 0.32618,-0.10959 0.43123,-0.45392 0.16342,-0.53562 0.34695,-1.27421 0.51881,-1.97455 0.16018,-0.66207 0.33527,-1.23595 0.38196,-1.38899 0.3035,-0.99473 0.69195,-2.13082 1.19712,-3.64951 0.55511,-1.54527 1.16535,-3.40828 1.90074,-5.81859 0.54863,-1.79816 0.46887,-1.94796 -0.22627,-2.41097 -0.87476,-0.55964 -2.75592,-1.38451 -3.10025,-1.48957 -0.34433,-0.10506 -0.52071,-0.0752 -0.56741,0.0778 -0.0584,0.19129 0.0979,0.36443 0.3158,0.47273 0.61538,0.31322 1.22233,0.79114 1.59129,1.36374 0.71134,1.09526 0.29435,2.59903 -0.2426,4.35894 -0.80544,2.63986 -1.43187,3.87062 -2.13092,4.24283 -0.76065,0.43704 -2.73519,-0.0818 -7.51756,-1.54088 l -5.81535,-1.77429 z"
         style="font-style:normal;font-variant:normal;font-weight:normal;font-stretch:normal;font-size:40px;font-family:'Trajan Pro';-inkscape-font-specification:'Trajan Pro';letter-spacing:-0.03px;fill:#000000;stroke:#000000;stroke-width:0.69999999;stroke-miterlimit:4;stroke-dasharray:none;stroke-opacity:1"
         id="path4571"
         inkscape:connector-curvature="0" />
      <path
         d="m 135.85443,310.84608 c -4.91193,-1.93683 -5.80501,-2.28898 -6.79505,-2.72236 -1.087,-0.51461 -1.46018,-0.87675 -1.29408,-1.84319 0.0723,-0.40146 0.16034,-0.62473 0.24838,-0.848 0.044,-0.11164 -0.0461,-0.31917 -0.15777,-0.36319 -0.18606,-0.0734 -0.31918,0.0461 -0.46591,0.41825 -0.39617,1.00471 -1.1581,3.15512 -1.21679,3.30397 -0.0734,0.18606 -0.9548,2.20335 -1.38032,3.28249 -0.14673,0.37211 -0.13099,0.5503 0.0551,0.62367 0.11164,0.044 0.3045,-0.009 0.3632,-0.15777 0.088,-0.22327 0.28665,-0.61793 0.5078,-0.9607 0.42763,-0.64833 1.01409,-0.71806 2.12258,-0.36697 1.03406,0.32175 1.92714,0.6739 6.83907,2.61073 l 5.58174,2.20094 c 3.05136,1.20318 5.52986,2.22348 6.77358,2.88588 0.88627,0.47846 1.43764,0.82486 1.33704,1.51615 -0.043,0.32704 -0.12994,0.76571 -0.24732,1.0634 -0.0734,0.18606 0.0461,0.31918 0.15777,0.3632 0.18606,0.0734 0.33385,-0.0833 0.4659,-0.41826 0.39617,-1.00471 1.09155,-3.09537 1.16491,-3.28143 0.0587,-0.14884 1.00669,-2.22589 1.72566,-4.04926 0.14673,-0.37211 0.0938,-0.56498 -0.0551,-0.62367 -0.11163,-0.044 -0.28983,-0.0283 -0.36319,0.15777 -0.11738,0.29769 -0.47059,0.97537 -0.73576,1.42977 -0.53035,0.90881 -1.16975,0.78568 -2.14406,0.53049 -1.3611,-0.3647 -3.85428,-1.34779 -6.90563,-2.55097 l -5.58175,-2.20094 z"
         style="font-style:normal;font-variant:normal;font-weight:normal;font-stretch:normal;font-size:40px;font-family:'Trajan Pro';-inkscape-font-specification:'Trajan Pro';letter-spacing:-0.03px;fill:#000000;stroke:#000000;stroke-width:0.69999999;stroke-miterlimit:4;stroke-dasharray:none;stroke-opacity:1"
         id="path4573"
         inkscape:connector-curvature="0" />
      <path
         d="m 146.31529,301.7037 c 2.94094,1.45233 5.34391,2.63898 6.51064,3.4382 0.82578,0.58624 1.3642,0.94135 1.20657,1.6219 -0.07,0.32235 -0.19305,0.75229 -0.33474,1.03921 -0.0886,0.17932 0.0195,0.3219 0.12708,0.37503 0.17932,0.0886 0.33961,-0.0553 0.49901,-0.37813 0.4782,-0.96836 1.38015,-3.06581 1.43328,-3.17341 0.0709,-0.14346 1.20569,-2.17051 2.05583,-3.89203 0.17711,-0.35866 0.14036,-0.55525 -0.003,-0.6261 -0.10759,-0.0531 -0.28648,-0.0522 -0.37503,0.12708 -0.14169,0.28692 -0.54994,0.93294 -0.8342,1.3279 -0.62166,0.89751 -1.28406,0.79346 -2.23383,0.45828 -1.32612,-0.47644 -3.72909,-1.66309 -6.67004,-3.11541 l -12.40936,-6.12809 c -0.32278,-0.1594 -0.50255,-0.3374 -0.44986,-0.53443 0.0877,-0.35821 0.38699,-1.32569 0.65266,-1.86367 0.35422,-0.7173 1.11359,-2.70671 3.57811,-3.54179 2.48223,-0.87095 4.50795,-0.004 5.51217,0.49149 2.76162,1.36376 3.70917,4.86527 2.0266,8.27246 -0.3188,0.64558 -0.33563,0.86032 -0.0846,0.9843 0.14346,0.0708 0.37548,-0.0376 0.44632,-0.18109 0.12442,-0.16162 0.39009,-0.6996 0.47865,-0.87892 2.39102,-4.8418 1.11537,-9.57601 -3.26019,-11.73678 -1.64979,-0.81472 -3.43774,-0.62698 -4.43754,-0.22848 -0.73192,0.30773 -2.69565,1.12245 -4.69702,5.17521 -0.70845,1.43461 -1.80566,3.83714 -2.14217,4.51858 -0.12398,0.25105 -1.16983,2.18821 -1.87828,3.62282 -0.17711,0.35865 -0.17622,0.53754 0.003,0.62609 0.1076,0.0531 0.3219,-0.0195 0.37504,-0.12707 0.14169,-0.28693 0.44322,-0.80719 0.60306,-1.04054 0.65709,-0.96924 1.24776,-0.90061 2.32327,-0.45872 1.00379,0.40648 1.86455,0.83155 6.59876,3.16943 l 5.37978,2.65668 z"
         style="font-style:normal;font-variant:normal;font-weight:normal;font-stretch:normal;font-size:40px;font-family:'Trajan Pro';-inkscape-font-specification:'Trajan Pro';letter-spacing:-0.03px;fill:#000000;stroke:#000000;stroke-width:0.69999999;stroke-miterlimit:4;stroke-dasharray:none;stroke-opacity:1"
         id="path4575"
         inkscape:connector-curvature="0" />
      <path
         d="m 157.47771,280.62857 c 2.77836,1.74331 5.04848,3.16772 6.12807,4.08122 0.76202,0.66703 1.26162,1.07495 1.03573,1.73599 -0.10231,0.31358 -0.2684,0.72881 -0.43848,0.99987 -0.1063,0.16941 -0.0133,0.32221 0.0884,0.38599 0.16941,0.1063 0.34347,-0.0206 0.53481,-0.32553 0.57402,-0.91483 1.68418,-2.90991 1.74796,-3.01155 0.085,-0.13553 1.41976,-2.03694 2.44023,-3.66329 0.2126,-0.33883 0.19599,-0.53814 0.0605,-0.62318 -0.10165,-0.0638 -0.2797,-0.0811 -0.386,0.0884 -0.17008,0.27106 -0.64178,0.87231 -0.96466,1.23638 -0.70955,0.82978 -1.35796,0.65904 -2.2688,0.22919 -1.27093,-0.60856 -3.54105,-2.03297 -6.31941,-3.77628 l -11.72333,-7.3559 c -0.30494,-0.19134 -0.46571,-0.38666 -0.3933,-0.57733 0.12358,-0.34746 0.51954,-1.27956 0.83844,-1.7878 0.4252,-0.67765 1.38256,-2.57972 3.9191,-3.16036 2.55781,-0.61452 4.48512,0.45312 5.43383,1.0484 2.60894,1.637 3.19622,5.2166 1.17654,8.43543 -0.38268,0.60989 -0.42121,0.82182 -0.18404,0.97064 0.13553,0.085 0.37736,6.6e-4 0.4624,-0.13487 0.14018,-0.14815 0.45908,-0.65639 0.56538,-0.8258 2.87008,-4.57413 2.0815,-9.41336 -2.05215,-12.00706 -1.55859,-0.97795 -3.35636,-0.97264 -4.39144,-0.67767 -0.75937,0.23186 -2.79565,0.84306 -5.19801,4.67178 -0.8504,1.35529 -2.18578,3.63405 -2.58972,4.27782 -0.14882,0.23718 -1.38587,2.05819 -2.23626,3.41349 -0.2126,0.33882 -0.22988,0.51687 -0.0605,0.62317 0.10164,0.0638 0.32221,0.0133 0.38599,-0.0884 0.17008,-0.27106 0.52286,-0.75803 0.70556,-0.97395 0.75207,-0.89755 1.33272,-0.76933 2.35783,-0.22056 0.95735,0.50625 1.77052,1.01649 6.24301,3.82279 l 5.08236,3.18897 z"
         style="font-style:normal;font-variant:normal;font-weight:normal;font-stretch:normal;font-size:40px;font-family:'Trajan Pro';-inkscape-font-specification:'Trajan Pro';letter-spacing:-0.03px;fill:#000000;stroke:#000000;stroke-width:0.69999999;stroke-miterlimit:4;stroke-dasharray:none;stroke-opacity:1"
         id="path4577"
         inkscape:connector-curvature="0" />
      <path
         d="m 167.79594,254.80575 c -4.22044,-3.17274 -4.9878,-3.7496 -5.82703,-4.43054 -0.91112,-0.78502 -1.17462,-1.23332 -0.75763,-2.12085 0.17642,-0.3678 0.32063,-0.55964 0.46485,-0.75148 0.0721,-0.0959 0.0404,-0.31995 -0.0556,-0.39206 -0.15987,-0.12018 -0.31996,-0.0404 -0.56032,0.27937 -0.64897,0.86327 -1.95506,2.73381 -2.05121,2.8617 -0.12018,0.15987 -1.5061,1.87032 -2.20314,2.79754 -0.24035,0.31973 -0.27255,0.49569 -0.11269,0.61587 0.0959,0.0721 0.29592,0.0723 0.39207,-0.0556 0.14421,-0.19184 0.44058,-0.51951 0.74488,-0.79117 0.58458,-0.51134 1.16848,-0.42269 2.14377,0.21041 0.91134,0.58502 1.6787,1.16188 5.89914,4.33461 l 4.79596,3.60538 c 2.6218,1.97094 4.73995,3.61332 5.76287,4.58247 0.72722,0.69681 1.16668,1.17731 0.88596,1.81699 -0.12834,0.30386 -0.32879,0.70363 -0.52107,0.95942 -0.12018,0.15986 -0.0404,0.31995 0.0556,0.39206 0.15986,0.12018 0.34399,0.008 0.56031,-0.27937 0.64897,-0.86327 1.87502,-2.6939 1.9952,-2.85376 0.0961,-0.1279 1.56211,-1.87825 2.73987,-3.44493 0.24035,-0.31974 0.24058,-0.51974 0.11269,-0.61588 -0.0959,-0.0721 -0.27189,-0.1043 -0.39207,0.0556 -0.19228,0.25579 -0.71291,0.8152 -1.08932,1.18278 -0.75283,0.73516 -1.3365,0.4465 -2.20794,-0.0585 -1.2152,-0.71337 -3.3574,-2.32377 -5.97919,-4.29471 l -4.79596,-3.60538 z"
         style="font-style:normal;font-variant:normal;font-weight:normal;font-stretch:normal;font-size:40px;font-family:'Trajan Pro';-inkscape-font-specification:'Trajan Pro';letter-spacing:-0.03px;fill:#000000;stroke:#000000;stroke-width:0.69999999;stroke-miterlimit:4;stroke-dasharray:none;stroke-opacity:1"
         id="path4579"
         inkscape:connector-curvature="0" />
      <path
         d="m 173.19918,240.32213 c 1.61414,0.0308 7.35736,-0.0201 13.27019,-0.0767 5.37479,-0.0669 12.49653,-0.36209 12.97615,-0.40646 2.65344,-0.20211 3.10384,-0.2738 3.34973,-0.53674 0.16393,-0.17529 0.0452,-0.34111 -1.59089,-1.87111 l -14.4947,-13.66443 c -1.48999,-1.39338 -1.93201,-1.91628 -1.31499,-2.92745 0.21479,-0.3468 0.40604,-0.55131 0.51532,-0.66817 0.16393,-0.1753 0.12714,-0.42876 0.0395,-0.51073 -0.14608,-0.13661 -0.36654,0.0406 -0.61243,0.30352 -0.98357,1.05176 -1.71746,1.95365 -1.99067,2.24581 -0.27321,0.29215 -1.47914,1.46456 -2.57199,2.63319 -0.27321,0.29215 -0.43525,0.52398 -0.28917,0.66059 0.0876,0.082 0.26105,0.18935 0.42497,0.0141 0.19125,-0.20451 0.7669,-0.7615 1.29168,-1.14698 0.88375,-0.65222 1.57546,-0.27919 3.20963,1.19427 l 12.69171,11.37592 c -1.55571,0.0238 -7.07468,0.0106 -12.08103,0.0935 -7.80587,0.14833 -15.27631,0.17223 -16.06782,0.19875 -0.50883,0.017 -1.41532,-0.009 -1.68853,0.28297 -0.19125,0.20451 -0.0649,0.59648 0.92841,1.5254 l 14.22797,13.30547 c 2.24959,2.10374 2.83959,2.81978 2.41381,3.62645 -0.23831,0.48908 -0.64624,0.98385 -0.83749,1.18836 -0.10928,0.11686 -0.1036,0.28647 0.0133,0.39576 0.17529,0.16393 0.34112,0.0452 0.58701,-0.21777 1.09285,-1.16862 2.01609,-2.33156 2.23466,-2.56528 0.21857,-0.23373 1.26246,-1.17431 2.62853,-2.63508 0.27321,-0.29216 0.37871,-0.5221 0.23263,-0.6587 -0.11686,-0.10929 -0.28647,-0.1036 -0.39576,0.0133 -0.21857,0.23372 -0.79421,0.79071 -1.34821,1.14887 -0.83101,0.53725 -1.6631,0.19723 -3.76283,-1.65683 l -11.98864,-10.66368 z"
         style="font-style:normal;font-variant:normal;font-weight:normal;font-stretch:normal;font-size:40px;font-family:'Trajan Pro';-inkscape-font-specification:'Trajan Pro';letter-spacing:-0.03px;fill:#000000;stroke:#000000;stroke-width:0.69999999;stroke-miterlimit:4;stroke-dasharray:none;stroke-opacity:1"
         id="path4581"
         inkscape:connector-curvature="0" />
      <path
         d="m 204.25321,224.6494 c 2.09601,2.52292 3.8086,4.58434 4.54941,5.789 0.51595,0.87143 0.88896,1.4456 0.44259,1.97244 -0.22057,0.23525 -0.48233,0.60873 -0.72847,0.81322 -0.15384,0.1278 -0.11313,0.30199 -0.0364,0.3943 0.1278,0.15383 0.33276,0.0876 0.60967,-0.14249 0.43074,-0.35785 1.02053,-0.89984 1.51801,-1.36515 0.55902,-0.51643 1.08206,-0.95096 1.1436,-1.00209 0.39998,-0.33229 1.10762,-0.9202 2.29714,-1.80442 1.13319,-0.88943 2.75344,-2.13151 4.78409,-3.81855 1.04609,-0.86907 1.323,-1.09912 0.94526,-1.92937 -0.30627,-0.68162 -1.57344,-2.64505 -1.72681,-2.82966 -0.15336,-0.1846 -0.36306,-0.37441 -0.51689,-0.24661 -0.15384,0.12781 -0.13869,0.27123 0.0554,0.63003 0.71524,1.17389 0.72945,1.94214 0.27741,2.83772 -0.4776,0.86481 -1.76982,1.93837 -2.47747,2.52628 -2.67676,2.22381 -3.45021,2.29435 -4.96873,0.59173 -0.46531,-0.49748 -2.96509,-3.56901 -3.70636,-4.46127 l -1.81484,-2.18448 c -0.0767,-0.0923 -0.1226,-0.21016 0.0312,-0.33797 0.46151,-0.38342 3.3792,-2.75539 4.1943,-3.27656 1.14834,-0.746 1.65009,-0.64282 2.04912,-0.35029 0.40425,0.23619 0.6343,0.5131 0.83878,0.75924 0.12781,0.15384 0.26603,0.19502 0.3891,0.0928 0.1846,-0.15337 0.0161,-0.48139 -0.16284,-0.69677 -0.15337,-0.1846 -0.90979,-1.22028 -1.28279,-1.79444 -0.65418,-0.91261 -0.8582,-1.47116 -0.986,-1.625 -0.12781,-0.15384 -0.24046,-0.16425 -0.33277,-0.0876 -0.0923,0.0767 -0.0876,0.33276 -0.1188,0.67073 -0.0469,0.50696 -0.42127,0.87002 -1.01626,1.46834 -0.56423,0.57275 -4.13324,3.53784 -4.47168,3.81901 -0.15384,0.12781 -0.23052,0.0355 -0.38389,-0.1491 l -5.90461,-7.10726 c -0.15337,-0.18461 -0.19928,-0.30247 -0.0762,-0.40471 0.30768,-0.25561 3.47151,-2.83208 3.98414,-3.15396 1.6302,-1.04233 2.06048,-1.08777 2.60294,-0.8104 0.37868,0.20543 0.7673,0.61061 0.92067,0.79522 0.17892,0.21537 0.3427,0.28732 0.49654,0.15951 0.12307,-0.10224 0.0876,-0.33276 0.0161,-0.48139 -0.19408,-0.3588 -1.10387,-1.57908 -1.27759,-1.85078 -0.55193,-0.78954 -0.6537,-1.22502 -0.80707,-1.40962 -0.10224,-0.12307 -0.23525,-0.22058 -0.32756,-0.1439 -0.12307,0.10225 -0.16945,0.29679 -0.26696,0.42981 -0.18981,0.20969 -0.60541,0.71097 -1.10289,1.17628 -0.58979,0.54199 -6.27654,5.21446 -6.46115,5.36782 -0.15383,0.12781 -1.95869,1.52326 -3.18939,2.5457 -0.30767,0.25561 -0.37962,0.41939 -0.25181,0.57323 0.0767,0.0923 0.30199,0.11313 0.39429,0.0364 0.24614,-0.20449 0.73321,-0.55714 0.97415,-0.7053 0.9945,-0.6182 1.50619,-0.31526 2.30899,0.52587 0.75169,0.7796 1.36515,1.51801 4.73922,5.57931 l 3.83416,4.6151 z"
         style="font-style:normal;font-variant:normal;font-weight:normal;font-stretch:normal;font-size:40px;font-family:'Trajan Pro';-inkscape-font-specification:'Trajan Pro';letter-spacing:-0.03px;fill:#000000;stroke:#000000;stroke-width:0.69999999;stroke-miterlimit:4;stroke-dasharray:none;stroke-opacity:1"
         id="path4583"
         inkscape:connector-curvature="0" />
      <path
         d="m 242.72257,209.91078 c 1.98803,-1.14663 3.72125,-2.73504 4.6673,-4.75256 1.49981,-3.26909 0.47508,-6.4068 -0.3955,-7.91623 -1.69871,-2.94524 -4.04604,-4.63324 -10.365,-5.55149 l -1.49798,-0.21539 c -5.12681,-0.72271 -6.84843,-1.49598 -8.05876,-3.59446 -1.55007,-2.68753 -0.47509,-5.41721 2.06517,-6.88235 3.38702,-1.95351 5.27285,-0.98058 5.72732,-0.70301 0.45446,0.27757 1.24867,1.14418 1.54029,1.56473 0.20669,0.27329 0.34967,0.43613 0.57056,0.30873 0.18408,-0.10617 0.10908,-0.40634 -0.23067,-0.99539 -1.4439,-2.50345 -1.99735,-3.80329 -2.10352,-3.98737 -0.10617,-0.18408 -0.22227,-0.21524 -0.51679,-0.0454 -0.29452,0.16987 -0.61028,0.30293 -1.39471,0.55911 -1.04779,0.30995 -2.20037,0.77847 -3.63617,1.60659 -4.67556,2.6967 -6.07072,7.08293 -3.7987,11.02218 1.4439,2.50344 3.64397,4.27639 9.39374,5.22854 l 2.44235,0.40665 c 4.67372,0.78779 6.59072,1.64462 8.05586,4.18488 1.35896,2.35619 1.09377,5.89444 -2.44051,7.93289 -2.46663,1.42267 -5.49099,1.79327 -7.61453,-0.61256 -0.40772,-0.45172 -0.70499,-0.96713 -0.8961,-1.29847 -0.16987,-0.29453 -0.27038,-0.38374 -0.49128,-0.25634 -0.18407,0.10617 -0.15153,0.33272 0.0452,0.75892 0.30293,0.61028 1.00502,2.16783 2.06671,4.0086 0.57331,0.99402 0.69507,1.12005 1.35912,1.08048 1.93411,-0.13428 3.77625,-0.85332 5.50658,-1.85131 z"
         style="font-size:42.5px"
         id="path4585"
         inkscape:connector-curvature="0" />
      <path
         d="m 257.37982,174.89605 4.06676,-1.68163 c 3.11307,-1.26681 4.11313,-0.87301 4.63799,0.0328 l 0.18027,0.31417 c 0.22813,0.42421 0.34935,0.50234 0.49608,0.43852 0.14672,-0.0638 0.22962,-0.27435 0.11794,-0.53112 -0.15954,-0.3668 -1.02272,-2.65217 -1.43753,-3.60587 -0.0798,-0.1834 -0.15955,-0.3668 -0.30627,-0.30298 -0.14672,0.0638 -0.40826,0.26481 -0.85319,0.54558 -0.48162,0.29672 -1.18332,0.68917 -2.24706,1.15185 l -12.17791,5.29686 c -0.36681,0.15955 -1.6299,0.66532 -2.59477,0.95413 -0.9282,0.27287 -1.37,0.15969 -1.59008,0.25542 -0.11005,0.0479 -0.11795,0.53112 -0.0749,0.73048 0.0383,0.28867 0.62729,3.34761 0.77088,3.67774 0.0798,0.1834 0.2584,0.19294 0.33176,0.16103 0.14672,-0.0638 0.24081,-0.14836 0.20249,-0.43703 0.0143,-0.26795 -0.0447,-0.50398 0.0828,-1.21374 0.15776,-0.94101 0.83232,-1.49614 2.83379,-2.41031 l 4.62651,-2.09957 5.69573,13.09493 c 1.30826,3.0078 2.3772,5.46539 2.78888,6.81302 0.28882,0.96488 0.37665,1.66822 -0.21978,2.10212 -0.26154,0.20099 -0.59644,0.4339 -0.88988,0.56153 -0.1834,0.0798 -0.2089,0.22173 -0.16104,0.33177 0.0798,0.1834 0.25841,0.19294 0.62521,0.0334 0.95369,-0.41482 3.14334,-1.49808 3.29006,-1.56189 0.1834,-0.0798 2.28537,-0.86318 4.04604,-1.62899 0.3668,-0.15955 0.46566,-0.33341 0.40184,-0.48013 -0.0479,-0.11004 -0.14836,-0.24081 -0.36844,-0.14508 -0.29345,0.12763 -1.05897,0.37336 -1.53104,0.49145 -1.05419,0.28405 -1.45618,-0.23902 -1.96508,-1.10817 -0.70513,-1.22 -1.77408,-3.67759 -3.08234,-6.68539 l -5.69572,-13.09492 z"
         style="font-style:normal;font-variant:normal;font-weight:normal;font-stretch:normal;font-size:40px;font-family:'Trajan Pro';-inkscape-font-specification:'Trajan Pro';letter-spacing:-0.03px;fill:#000000;stroke:#000000;stroke-width:0.69999999;stroke-miterlimit:4;stroke-dasharray:none;stroke-opacity:1"
         id="path4587"
         inkscape:connector-curvature="0" />
      <path
         d="m 277.13792,188.97171 c -0.13973,1.84425 -0.43356,3.19187 -1.90241,3.85704 -0.25557,0.12119 -0.74036,0.31349 -0.96958,0.38462 -0.15281,0.0474 -0.27006,0.20944 -0.22264,0.36225 0.0593,0.19102 0.31219,0.1963 0.73243,0.0659 1.37531,-0.42674 3.02069,-1.06293 3.36452,-1.16962 0.38203,-0.11854 2.25134,-0.57292 3.05361,-0.82186 0.30562,-0.0948 0.47293,-0.23051 0.41366,-0.42152 -0.0474,-0.15282 -0.15938,-0.24372 -0.42681,-0.16074 l -0.30562,0.0948 c -0.57305,0.17781 -1.21722,0.12641 -1.41874,-0.52305 -0.17781,-0.57304 -0.23573,-1.43458 -0.17904,-2.33168 l 0.29801,-5.78833 c 0.0171,-0.21473 0.10803,-0.3267 0.26085,-0.37411 l 7.75524,-2.40638 c 0.19101,-0.0593 0.24107,-0.0329 0.36489,0.0962 l 5.32959,6.51314 c 0.39518,0.46372 0.13433,0.83783 -0.033,0.97351 -0.1291,0.12382 -0.20551,0.14753 -0.15809,0.30034 0.0593,0.19102 0.59411,0.0251 1.25542,-0.13825 2.3541,-0.6467 4.83731,-1.41721 5.33395,-1.57131 0.38203,-0.11854 0.74035,-0.31349 0.68108,-0.50451 -0.0593,-0.19101 -0.3122,-0.19629 -0.50321,-0.13702 -0.34383,0.10668 -0.85232,0.22258 -1.39638,0.22387 -0.79699,-0.004 -1.84426,-0.13973 -3.96767,-2.66384 -3.59214,-4.28808 -13.13956,-16.02597 -14.17756,-17.21162 -0.56905,-0.61917 -0.82591,-1.04205 -1.16974,-0.93536 -0.22922,0.0711 -0.32276,0.30955 -0.41108,1.50964 l -1.6017,22.77787 z m 2.74178,-8.30563 c -0.11461,0.0356 -0.17652,-0.029 -0.18573,-0.19366 l 0.37066,-9.87337 c 0.0369,-0.55591 0.22793,-0.61518 0.57305,-0.17781 l 6.08567,7.87004 c 0.0856,0.14095 0.10933,0.21736 -0.0435,0.26478 l -6.80017,2.11002 z"
         style="font-style:normal;font-variant:normal;font-weight:normal;font-stretch:normal;font-size:40px;font-family:'Trajan Pro';-inkscape-font-specification:'Trajan Pro';letter-spacing:-0.03px;fill:#000000;stroke:#000000;stroke-width:0.69999999;stroke-miterlimit:4;stroke-dasharray:none;stroke-opacity:1"
         id="path4589"
         inkscape:connector-curvature="0" />
      <path
         d="M 305.56565,160.54083 309.90357,159.8 c 3.31612,-0.54714 4.20436,0.058 4.51595,1.05748 l 0.10634,0.34625 c 0.12869,0.46415 0.22964,0.56716 0.38684,0.53736 0.1572,-0.0298 0.28461,-0.2168 0.23246,-0.4919 -0.0745,-0.393 -0.411,-2.81266 -0.60469,-3.83447 -0.0372,-0.1965 -0.0745,-0.393 -0.23169,-0.3632 -0.1572,0.0298 -0.45671,0.16799 -0.95271,0.34343 -0.5353,0.18289 -1.30641,0.41048 -2.44612,0.62651 l -13.04767,2.4732 c -0.393,0.0745 -1.73666,0.28847 -2.74151,0.3568 -0.96555,0.0609 -1.3714,-0.14717 -1.6072,-0.10247 -0.1179,0.0223 -0.23246,0.49189 -0.23451,0.69584 -0.0265,0.29 -0.12841,3.40346 -0.0614,3.75716 0.0372,0.1965 0.20935,0.2453 0.28795,0.23041 0.1572,-0.0298 0.26765,-0.0915 0.29411,-0.38145 0.0732,-0.25815 0.0678,-0.5014 0.34907,-1.1654 0.36191,-0.88284 1.14252,-1.27508 3.29658,-1.7241 l 4.97623,-1.02467 2.65943,14.03018 c 0.61085,3.22262 1.10996,5.85573 1.21348,7.26104 0.0683,1.00485 -0.002,1.7102 -0.67913,2.00149 -0.29951,0.13819 -0.67761,0.29129 -0.99201,0.35088 -0.1965,0.0373 -0.25275,0.17005 -0.23041,0.28795 0.0373,0.1965 0.20935,0.2453 0.60235,0.17081 1.02181,-0.19368 3.39677,-0.76599 3.55397,-0.79579 0.19651,-0.0373 2.41967,-0.33651 4.30608,-0.69408 0.393,-0.0745 0.52785,-0.2222 0.49805,-0.3794 -0.0223,-0.1179 -0.0914,-0.26765 -0.32724,-0.22295 -0.31441,0.0596 -1.11531,0.12998 -1.60181,0.14077 -1.0909,0.0439 -1.36729,-0.55507 -1.67143,-1.51523 -0.41793,-1.34571 -0.91704,-3.97882 -1.52788,-7.20144 l -2.65943,-14.03018 z"
         style="font-style:normal;font-variant:normal;font-weight:normal;font-stretch:normal;font-size:40px;font-family:'Trajan Pro';-inkscape-font-specification:'Trajan Pro';letter-spacing:-0.03px;fill:#000000;stroke:#000000;stroke-width:0.69999999;stroke-miterlimit:4;stroke-dasharray:none;stroke-opacity:1"
         id="path4591"
         inkscape:connector-curvature="0" />
      <path
         d="m 328.29714,165.87118 c -0.48029,-5.25811 -0.56762,-6.21413 -0.62602,-7.29329 -0.0295,-1.2023 0.12602,-1.69851 1.06384,-1.985 0.39107,-0.11606 0.63007,-0.13789 0.86908,-0.15972 0.1195,-0.0109 0.26428,-0.18481 0.25337,-0.30431 -0.0182,-0.19917 -0.18481,-0.26428 -0.58315,-0.2279 -1.07552,0.0982 -3.33879,0.38531 -3.49813,0.39986 -0.19917,0.0182 -2.39733,0.13865 -3.55252,0.24416 -0.39834,0.0364 -0.5504,0.13061 -0.53221,0.32978 0.0109,0.1195 0.14498,0.26793 0.30431,0.25337 0.23901,-0.0218 0.68082,-0.022 1.08644,0.0213 0.7714,0.0902 1.09754,0.58258 1.28273,1.7305 0.17791,1.06824 0.26523,2.02426 0.74552,7.28237 l 0.54578,5.97513 c 0.29836,3.2664 0.50231,5.93893 0.47032,7.34768 -0.0285,1.00677 -0.0898,1.65503 -0.75245,1.87622 -0.31139,0.10878 -0.74229,0.22847 -1.06097,0.25758 -0.19917,0.0182 -0.26428,0.18481 -0.25337,0.30431 0.0182,0.19917 0.22464,0.26064 0.58315,0.2279 1.07552,-0.0982 3.25549,-0.41787 3.45466,-0.43606 0.15934,-0.0146 2.4408,-0.10245 4.39267,-0.28074 0.39834,-0.0364 0.54677,-0.17044 0.53221,-0.32977 -0.0109,-0.11951 -0.10514,-0.27157 -0.30431,-0.25337 -0.31867,0.0291 -1.0828,0.0186 -1.60792,-0.0138 -1.05024,-0.0647 -1.22796,-0.69116 -1.43843,-1.6761 -0.28668,-1.37964 -0.53046,-4.04853 -0.82882,-7.31494 l -0.54578,-5.97512 z"
         style="font-style:normal;font-variant:normal;font-weight:normal;font-stretch:normal;font-size:40px;font-family:'Trajan Pro';-inkscape-font-specification:'Trajan Pro';letter-spacing:-0.03px;fill:#000000;stroke:#000000;stroke-width:0.69999999;stroke-miterlimit:4;stroke-dasharray:none;stroke-opacity:1"
         id="path4593"
         inkscape:connector-curvature="0" />
      <path
         d="m 344.19031,181.41901 c 1.91999,-0.006 4.11916,-0.25393 5.59591,-1.21893 2.51444,-1.64851 3.26713,-3.81107 3.26036,-5.81106 -0.01,-2.91998 -1.49784,-5.27496 -5.78769,-8.18047 l -1.0023,-0.67662 c -3.48796,-2.34822 -4.57214,-3.58456 -4.57945,-5.74455 -0.008,-2.39998 2.10755,-3.68714 4.66753,-3.6958 3.15998,-0.0107 4.3243,1.26538 4.56566,1.66457 0.20121,0.35932 0.48432,1.27837 0.52567,1.67823 0.041,0.27986 0.0815,0.43973 0.32149,0.43892 0.24,-8.1e-4 0.27919,-0.24095 0.27743,-0.76095 -0.008,-2.31998 0.14836,-3.44052 0.14782,-3.60052 -6.7e-4,-0.19999 -0.0808,-0.23972 -0.36081,-0.23878 -0.27999,9.5e-4 -0.55999,0.002 -1.24053,-0.1558 -0.84067,-0.19716 -2.24134,-0.39243 -3.64133,-0.38769 -4.63997,0.0157 -7.79184,2.42636 -7.77831,6.42634 0.008,2.35999 1.255,4.43578 5.06458,7.26291 l 1.60405,1.19459 c 3.12783,2.30943 4.45175,3.46496 4.46,5.90495 0.009,2.55998 -1.78471,4.52606 -5.26469,4.53783 -2.35998,0.008 -5.00294,-0.86309 -5.57133,-3.34118 -0.12162,-0.47959 -0.12324,-0.95959 -0.12419,-1.23959 -9.5e-4,-0.28 -0.12135,-0.39959 -0.32135,-0.39891 -0.2,6.7e-4 -0.27932,0.20094 -0.27811,0.56094 -0.0381,0.56013 -0.1935,1.92066 -0.18782,3.60065 0.003,0.92 0.0435,1.03986 0.52432,1.27824 1.4423,0.67513 3.4831,0.90823 5.12309,0.90268 z"
         style="font-style:normal;font-variant:normal;font-weight:normal;font-stretch:normal;font-size:40px;font-family:'Trajan Pro';-inkscape-font-specification:'Trajan Pro';letter-spacing:-0.03px;fill:#000000;stroke:#000000;stroke-width:0.69999999;stroke-miterlimit:4;stroke-dasharray:none;stroke-opacity:1"
         id="path4595"
         inkscape:connector-curvature="0" />
      <path
         d="m 373.12856,158.29614 4.36637,0.54882 c 3.33231,0.4379 4.00691,1.27463 4.01531,2.32149 l 10e-4,0.36222 c -0.0114,0.48152 0.0553,0.60937 0.21442,0.62644 0.15908,0.0171 0.33523,-0.12496 0.3651,-0.40337 0.0427,-0.39771 0.42221,-2.811 0.53313,-3.84507 0.0213,-0.19885 0.0427,-0.39771 -0.11642,-0.41478 -0.15909,-0.0171 -0.4858,0.0283 -1.01136,0.0524 -0.56534,0.0198 -1.36931,0.014 -2.5227,-0.10968 l -13.20425,-1.41637 c -0.39772,-0.0427 -1.74569,-0.22748 -2.72719,-0.45345 -0.94173,-0.2217 -1.26981,-0.5385 -1.50844,-0.5641 -0.11932,-0.0128 -0.3651,0.40336 -0.42621,0.59796 -0.1094,0.26987 -1.10975,3.22 -1.14815,3.57795 -0.0213,0.19886 0.12922,0.29547 0.20877,0.304 0.15909,0.0171 0.28267,-0.01 0.39207,-0.27978 0.14492,-0.22583 0.21029,-0.4602 0.672,-1.01411 0.60235,-0.73998 1.46316,-0.88902 3.65488,-0.69415 l 5.05955,0.46226 -1.52302,14.19854 c -0.34982,3.2613 -0.63566,5.92601 -0.94406,7.30096 -0.22597,0.9815 -0.49735,1.63629 -1.23031,1.71858 -0.32671,0.0454 -0.73296,0.0823 -1.05114,0.0482 -0.19885,-0.0213 -0.2912,0.0894 -0.304,0.20877 -0.0213,0.19886 0.12923,0.29547 0.52695,0.33813 1.03407,0.11092 3.47295,0.25184 3.63203,0.2689 0.19886,0.0213 2.41329,0.37956 4.32234,0.58433 0.39772,0.0427 0.5696,-0.0596 0.58667,-0.21867 0.0128,-0.11932 -0.01,-0.28267 -0.24854,-0.30827 -0.31818,-0.0341 -1.10508,-0.199 -1.57381,-0.32973 -1.05678,-0.27428 -1.14761,-0.92769 -1.16027,-1.93479 -0.01,-1.40908 0.27606,-4.07379 0.62589,-7.33508 l 1.52302,-14.19855 z"
         style="font-style:normal;font-variant:normal;font-weight:normal;font-stretch:normal;font-size:40px;font-family:'Trajan Pro';-inkscape-font-specification:'Trajan Pro';letter-spacing:-0.03px;fill:#000000;stroke:#000000;stroke-width:0.69999999;stroke-miterlimit:4;stroke-dasharray:none;stroke-opacity:1"
         id="path4597"
         inkscape:connector-curvature="0" />
      <path
         d="m 393.33508,169.99779 c 1.06465,-5.17155 1.25823,-6.11183 1.51517,-7.16158 0.32033,-1.15922 0.61301,-1.58904 1.59362,-1.59135 0.40791,0.002 0.64298,0.0507 0.87805,0.0991 0.11754,0.0242 0.30651,-0.10025 0.33071,-0.21779 0.0403,-0.19589 -0.10025,-0.30651 -0.49204,-0.38716 -1.05781,-0.21777 -3.30711,-0.59916 -3.46383,-0.63142 -0.19589,-0.0403 -2.33457,-0.56229 -3.47074,-0.79619 -0.39179,-0.0807 -0.56463,-0.0346 -0.60496,0.16133 -0.0242,0.11754 0.0611,0.29845 0.21779,0.33071 0.23507,0.0484 0.65797,0.17629 1.03362,0.3353 0.71213,0.30996 0.88152,0.87574 0.72598,2.02805 -0.13942,1.07394 -0.33299,2.01422 -1.39765,7.18577 l -1.20983,5.87676 c -0.66138,3.21263 -1.24095,5.82952 -1.67996,7.1685 -0.31917,0.95526 -0.56576,1.55792 -1.26405,1.57752 -0.32956,0.0138 -0.77665,0.003 -1.09008,-0.0611 -0.19589,-0.0403 -0.30651,0.10026 -0.33071,0.21779 -0.0403,0.19589 0.13943,0.31458 0.49204,0.38717 1.05782,0.21777 3.23682,0.54384 3.43272,0.58417 0.15671,0.0323 2.36568,0.60953 4.28542,1.00475 0.39179,0.0807 0.5727,-0.005 0.60496,-0.16134 0.0242,-0.11753 -0.0219,-0.29037 -0.21779,-0.3307 -0.31343,-0.0645 -1.04169,-0.29613 -1.53487,-0.47934 -0.98638,-0.36642 -0.97487,-1.01747 -0.89076,-2.02113 0.12558,-1.4035 0.66597,-4.02845 1.32735,-7.24108 l 1.20984,-5.87676 z"
         style="font-style:normal;font-variant:normal;font-weight:normal;font-stretch:normal;font-size:40px;font-family:'Trajan Pro';-inkscape-font-specification:'Trajan Pro';letter-spacing:-0.03px;fill:#000000;stroke:#000000;stroke-width:0.69999999;stroke-miterlimit:4;stroke-dasharray:none;stroke-opacity:1"
         id="path4599"
         inkscape:connector-curvature="0" />
      <path
         d="m 412.77774,192.24519 c 2.17239,0.6922 4.7485,1.30312 6.29055,1.20673 0.64455,-0.0465 0.7572,-0.13657 1.14206,-0.68564 0.69518,-0.99596 2.05116,-3.67053 2.12402,-3.8992 0.0729,-0.22867 -0.007,-0.50592 -0.15917,-0.55449 -0.22867,-0.0729 -0.30322,0.0293 -0.48873,0.34805 -0.30864,0.57336 -1.20316,1.79967 -2.15802,2.29307 -1.75895,0.90889 -3.4966,0.56513 -6.012,-0.23636 -7.16507,-2.28302 -10.32068,-9.37581 -8.34125,-15.58808 1.04436,-3.27764 2.50085,-6.00414 5.70676,-7.50153 1.53364,-0.72879 3.95601,-1.21639 8.26267,0.15585 2.97274,0.94721 5.15689,2.52477 6.02263,3.89214 0.65799,0.96532 0.77867,2.43114 0.37793,3.68884 -0.14572,0.45734 -0.18047,0.69816 0.0482,0.77102 0.19056,0.0607 0.40372,-0.0813 0.59971,-0.56458 0.18383,-0.4452 0.75459,-2.23646 1.13272,-3.29146 0.45268,-1.15719 0.65035,-1.51402 0.73535,-1.7808 0.0607,-0.19056 0.0331,-0.3673 -0.30994,-0.47659 -1.0931,-0.39028 -2.08738,-0.95898 -3.27221,-1.5884 -1.55382,-0.78896 -3.42299,-1.51048 -4.75691,-1.93551 -5.14513,-1.63941 -8.67985,-1.08643 -11.31912,0.21367 -3.89566,1.94931 -5.89824,5.46738 -6.59044,7.63977 -0.98364,3.08708 -1.36123,7.03897 1.01777,10.90362 1.90111,3.12464 4.91663,5.38691 9.94742,6.98988 z"
         style="font-style:normal;font-variant:normal;font-weight:normal;font-stretch:normal;font-size:40px;font-family:'Trajan Pro';-inkscape-font-specification:'Trajan Pro';letter-spacing:-0.03px;fill:#000000;stroke:#000000;stroke-width:0.69999999;stroke-miterlimit:4;stroke-dasharray:none;stroke-opacity:1"
         id="path4601"
         inkscape:connector-curvature="0" />
      <path
         d="m 430.03704,199.01476 c 1.74754,0.7953 3.84934,1.48813 5.59406,1.2274 2.97296,-0.44886 4.55941,-2.10004 5.38784,-3.9204 1.20952,-2.65771 0.84,-5.41878 -1.84604,-9.84935 l -0.62851,-1.03313 c -2.18987,-3.5895 -2.65923,-5.16548 -1.76452,-7.13146 0.99412,-2.18443 3.45389,-2.47132 5.78395,-1.41092 2.87616,1.30893 3.40177,2.95445 3.45453,3.41793 0.0329,0.41051 -0.0933,1.36385 -0.2226,1.74449 -0.0796,0.27142 -0.10944,0.43362 0.109,0.53303 0.21845,0.0994 0.35427,-0.10246 0.56966,-0.57575 0.96098,-2.11162 1.57054,-3.06474 1.63681,-3.21037 0.0828,-0.18204 0.0266,-0.25158 -0.22825,-0.36756 -0.25485,-0.11598 -0.5097,-0.23196 -1.06235,-0.65926 -0.6817,-0.52998 -1.87311,-1.29192 -3.14736,-1.87182 -4.22322,-1.92197 -8.09351,-1.04647 -9.75038,2.59424 -0.97755,2.14802 -0.7105,4.55482 1.5718,8.71375 l 0.95922,1.75497 c 1.87877,3.40397 2.59972,5.00654 1.58903,7.22737 -1.0604,2.33006 -3.51059,3.36842 -6.67801,1.92694 -2.14802,-0.97755 -4.18638,-2.87204 -3.66882,-5.36124 0.0896,-0.4866 0.28843,-0.92348 0.40441,-1.17833 0.11598,-0.25485 0.0565,-0.41378 -0.12557,-0.49662 -0.18203,-0.0828 -0.33769,0.066 -0.48681,0.39372 -0.26837,0.49313 -0.97733,1.6647 -1.67322,3.19379 -0.38108,0.83737 -0.39438,0.96316 -0.0569,1.38043 1.02899,1.21539 2.78634,2.27884 4.27903,2.95815 z"
         style="font-style:normal;font-variant:normal;font-weight:normal;font-stretch:normal;font-size:40px;font-family:'Trajan Pro';-inkscape-font-specification:'Trajan Pro';letter-spacing:-0.03px;fill:#000000;stroke:#000000;stroke-width:0.69999999;stroke-miterlimit:4;stroke-dasharray:none;stroke-opacity:1"
         id="path4603"
         inkscape:connector-curvature="0" />
      <path
         d="m 459.07806,208.36603 c -1.84091,1.3084 -3.46056,2.1495 -5.21147,1.2432 -0.30345,-0.15913 -0.8163,-0.4638 -1.0606,-0.63358 -0.17449,-0.12127 -0.3626,-0.14848 -0.45962,-0.009 -0.14552,0.2094 0.0154,0.42473 0.46906,0.74003 1.64028,1.13995 3.63252,2.36924 4.01641,2.63604 0.3839,0.26679 1.81182,1.41443 2.64941,1.99653 0.31409,0.21829 0.572,0.29402 0.71752,0.0846 0.097,-0.1396 0.0408,-0.28216 -0.20347,-0.45194 l -0.34899,-0.24254 c -0.59329,-0.41233 -1.1079,-1.23576 -0.62281,-1.93375 0.43658,-0.6282 1.19318,-1.34451 2.11363,-1.99872 l 6.38698,-4.72196 c 0.19107,-0.12599 0.36854,-0.15793 0.54303,-0.0367 l 7.50341,5.21467 c 0.1745,0.12127 0.19579,0.23958 0.16857,0.42768 l -2.7209,10.84095 c -0.17867,0.70391 -0.60635,0.87248 -0.86426,0.79676 -0.16385,-0.0621 -0.31706,-0.0651 -0.41408,0.0745 -0.14552,0.2094 0.23837,0.4762 0.87721,0.97193 2.35956,1.74335 4.90723,3.51391 5.43072,3.87772 0.3839,0.2668 0.7465,0.41529 0.89203,0.20589 0.12127,-0.1745 0.006,-0.30641 -0.20347,-0.45194 -0.349,-0.24254 -0.84824,-0.64125 -1.25046,-1.17957 -0.58736,-0.71873 -1.21138,-1.9805 -0.30913,-5.95972 1.55777,-6.78424 6.09556,-25.00568 6.49373,-26.69568 0.33309,-1.37294 0.31477,-1.64446 0.10537,-1.78998 -0.2094,-0.14553 -0.49452,-0.0332 -1.71371,0.82749 l -22.98411,16.1669 z m 10.24613,-4.3172 c -0.1047,-0.0728 -0.12599,-0.19107 0.0651,-0.31706 l 9.61982,-7.28851 c 0.53832,-0.40222 0.71281,-0.28095 0.5235,0.36382 l -3.2332,11.72704 c -0.0621,0.16385 -0.13488,0.26855 -0.30938,0.14728 l -6.66582,-4.63257 z"
         style="font-size:42.5px"
         id="path4605"
         inkscape:connector-curvature="0" />
      <path
         d="m 488.08749,221.83767 c -3.35612,3.65213 -3.9516,6.31007 -3.76775,8.65199 0.25626,3.38631 2.91178,5.93524 3.7659,6.72014 1.53154,1.40741 3.72378,3.04169 7.09735,3.15399 3.68562,0.12742 6.8268,-2.58141 9.31682,-5.29106 l 2.46296,-2.68019 c 3.57265,-3.88775 4.19277,-4.62168 4.98244,-5.36277 0.81674,-0.77054 1.34292,-1.04755 2.18511,-0.54525 0.37811,0.23882 0.52537,0.37415 0.70209,0.53654 0.11781,0.10826 0.31443,0.0717 0.39563,-0.0167 0.13533,-0.14726 0.0717,-0.31443 -0.22288,-0.58509 -0.76577,-0.7037 -2.05691,-1.78154 -2.23363,-1.94394 -0.14726,-0.13532 -1.59522,-1.57457 -2.74387,-2.63012 -0.29453,-0.27066 -0.46647,-0.32002 -0.6018,-0.17275 -0.0812,0.0884 -0.1011,0.28736 0.0167,0.39562 0.23563,0.21653 0.65035,0.65196 0.82945,0.87087 0.74587,0.90271 0.46008,1.50928 -0.24123,2.33157 -0.70132,0.82229 -1.32144,1.55622 -4.89408,5.44397 l -2.89601,3.15143 c -2.3547,2.56239 -4.51436,4.38048 -7.04812,4.71398 -1.85794,0.24833 -4.03905,-0.45221 -5.6295,-1.91375 -1.47263,-1.35328 -2.40237,-2.58793 -2.61328,-4.9004 -0.19898,-2.02988 0.38614,-4.26274 3.7152,-7.88541 l 3.22079,-3.50487 c 3.57265,-3.88775 4.22222,-4.59461 5.01189,-5.3357 0.81674,-0.77055 1.36999,-1.07701 2.15566,-0.57231 0.37811,0.23881 0.52537,0.37414 0.70209,0.53653 0.11781,0.10826 0.34388,0.0987 0.42508,0.0104 0.13533,-0.14727 0.0422,-0.3415 -0.25233,-0.61215 -0.76577,-0.70371 -2.4398,-2.1334 -2.67542,-2.34993 -0.23562,-0.21652 -1.74248,-1.7099 -2.92059,-2.79252 -0.29452,-0.27065 -0.46646,-0.32001 -0.60179,-0.17275 -0.0812,0.0884 -0.0717,0.31443 0.0167,0.39563 0.23562,0.21652 0.65034,0.65196 0.82945,0.87087 0.74586,0.90271 0.46008,1.50928 -0.21179,2.35863 -0.67186,0.84936 -1.32143,1.55622 -4.89408,5.44397 l -3.38318,3.68158 z"
         style="font-style:normal;font-variant:normal;font-weight:normal;font-stretch:normal;font-size:40px;font-family:'Trajan Pro';-inkscape-font-specification:'Trajan Pro';letter-spacing:-0.03px;fill:#000000;stroke:#000000;stroke-width:0.69999999;stroke-miterlimit:4;stroke-dasharray:none;stroke-opacity:1"
         id="path4607"
         inkscape:connector-curvature="0" />
      <path
         d="m 526.32827,241.68133 2.79385,3.40012 c 2.11909,2.60872 2.03385,3.68014 1.32031,4.44621 l -0.24799,0.264 c -0.33931,0.34187 -0.37872,0.4806 -0.27491,0.60235 0.10381,0.12176 0.32937,0.1397 0.54244,-0.042 0.30438,-0.25952 2.23897,-1.75128 3.03037,-2.42603 0.15219,-0.12976 0.30438,-0.25952 0.20058,-0.38128 -0.10381,-0.12175 -0.3723,-0.31335 -0.77056,-0.65715 -0.4242,-0.37423 -1.00412,-0.93109 -1.75673,-1.8138 l -8.61607,-10.10553 c -0.25952,-0.30439 -1.11145,-1.36524 -1.66893,-2.20406 -0.53154,-0.80837 -0.55204,-1.26398 -0.70775,-1.44661 -0.0779,-0.0913 -0.54244,0.042 -0.72058,0.14128 -0.26497,0.12079 -3.01947,1.57569 -3.29342,1.80926 -0.15219,0.12976 -0.10926,0.30342 -0.0573,0.36429 0.1038,0.12176 0.2121,0.18712 0.47707,0.0663 0.26049,-0.0644 0.46907,-0.18967 1.18517,-0.27456 0.94614,-0.12335 1.67376,0.36015 3.13156,2.0083 l 3.35678,3.81377 -10.86649,9.26487 c -2.49594,2.12807 -4.53531,3.86685 -5.70446,4.65342 -0.83881,0.55748 -1.48603,0.84648 -2.07491,0.40239 -0.2685,-0.1916 -0.58889,-0.44408 -0.79651,-0.68758 -0.12976,-0.1522 -0.27298,-0.13522 -0.36429,-0.0574 -0.1522,0.12976 -0.10927,0.30342 0.15025,0.6078 0.67476,0.7914 2.34915,2.57028 2.45295,2.69203 0.12976,0.15219 1.49176,1.9346 2.73746,3.39564 0.25952,0.30438 0.45464,0.34828 0.5764,0.24447 0.0913,-0.0778 0.18711,-0.2121 0.0314,-0.39473 -0.20762,-0.24351 -0.66578,-0.90418 -0.91633,-1.32134 -0.57895,-0.92565 -0.19574,-1.46263 0.48736,-2.20275 0.96153,-1.03007 3.0009,-2.76886 5.49685,-4.89692 l 10.86648,-9.26487 z"
         style="font-style:normal;font-variant:normal;font-weight:normal;font-stretch:normal;font-size:40px;font-family:'Trajan Pro';-inkscape-font-specification:'Trajan Pro';letter-spacing:-0.03px;fill:#000000;stroke:#000000;stroke-width:0.69999999;stroke-miterlimit:4;stroke-dasharray:none;stroke-opacity:1"
         id="path4609"
         inkscape:connector-curvature="0" />
      <path
         d="m 543.38354,279.71017 c 4.42586,-2.87927 5.23056,-3.40277 6.17947,-3.92465 1.0495,-0.58733 1.56092,-0.68143 2.23025,-0.0193 0.307,0.32519 0.41607,0.49284 0.54694,0.69401 0.0873,0.13412 0.30862,0.18099 0.40921,0.11555 0.16764,-0.10906 0.12564,-0.32033 -0.0925,-0.65563 -0.56713,-0.87176 -1.85569,-2.70577 -1.96476,-2.87341 -0.0872,-0.13412 -1.26351,-2.08891 -2.1142,-3.39655 -0.21813,-0.33529 -0.37244,-0.42578 -0.54009,-0.31672 -0.10058,0.0654 -0.16926,0.25328 -0.082,0.38739 0.1745,0.26824 0.46816,0.79299 0.58732,1.0495 0.49845,1.0596 0.11629,1.4991 -0.81243,2.19872 -0.88348,0.62247 -1.73342,1.22313 -6.15928,4.1024 l -0.60353,0.39263 c -0.16764,0.10906 -0.21127,0.042 -0.27671,-0.0586 l -8.00524,-12.30523 c -0.0654,-0.10058 -0.10906,-0.16764 0.0586,-0.2767 l 0.60353,-0.39263 c 4.42586,-2.87927 5.29762,-3.4464 6.22472,-4.00181 1.0495,-0.58733 1.56091,-0.68143 2.25206,0.0142 0.28519,0.29166 0.41606,0.49284 0.54694,0.69401 0.0654,0.10059 0.2868,0.14746 0.38739,0.082 0.16765,-0.10906 0.14746,-0.28681 -0.0707,-0.6221 -0.58894,-0.90529 -1.87751,-2.7393 -1.96476,-2.87341 -0.10906,-0.16765 -1.26351,-2.08891 -2.13602,-3.43008 -0.21813,-0.33529 -0.37244,-0.42578 -0.54008,-0.31672 -0.10059,0.0654 -0.14746,0.28681 -0.082,0.38739 0.1745,0.26824 0.46816,0.79299 0.58732,1.0495 0.49845,1.0596 0.13811,1.53263 -0.79061,2.23225 -0.86167,0.656 -1.66637,1.1795 -6.09222,4.05878 l -5.02939,3.27189 c -2.74939,1.78864 -4.99585,3.25009 -6.27843,3.84589 -0.92549,0.41119 -1.50558,0.69314 -2.01051,0.21039 -0.24156,-0.22461 -0.54856,-0.5498 -0.72306,-0.81804 -0.10906,-0.16764 -0.2868,-0.14745 -0.38739,-0.082 -0.16765,0.10906 -0.12564,0.32033 0.0707,0.6221 0.58894,0.90528 1.91104,2.71748 2.0201,2.88513 0.0873,0.13412 1.20817,2.07719 2.27699,3.72012 0.21813,0.33529 0.40597,0.40397 0.54008,0.31672 0.10059,-0.0654 0.19108,-0.21975 0.082,-0.38739 -0.1745,-0.26824 -0.52188,-0.94892 -0.73839,-1.42842 -0.43301,-0.95901 0.038,-1.4086 0.81081,-2.0545 1.08627,-0.89756 3.26567,-2.31539 6.01507,-4.10402 l 2.84998,-1.85408 c 0.13412,-0.0872 0.21127,-0.042 0.27671,0.0586 l 8.00524,12.30522 c 0.0654,0.10059 0.0755,0.18946 -0.0586,0.27671 l -2.84998,1.85408 c -2.7494,1.78864 -4.89527,3.18465 -6.15604,3.81397 -0.90367,0.44473 -1.5391,0.71496 -2.06585,0.19868 -0.24156,-0.22461 -0.52674,-0.51627 -0.70124,-0.78451 -0.10907,-0.16764 -0.28681,-0.14745 -0.3874,-0.082 -0.16764,0.10906 -0.14745,0.2868 0.0707,0.6221 0.56712,0.87176 1.91103,2.71748 1.99828,2.8516 0.10907,0.16765 1.22999,2.11072 2.277,3.72012 0.21812,0.33529 0.42777,0.4375 0.56189,0.35025 0.10059,-0.0654 0.19108,-0.21975 0.0602,-0.42092 -0.15269,-0.23471 -0.52188,-0.94891 -0.71657,-1.39489 -0.45483,-0.99254 0.038,-1.4086 0.81081,-2.05451 1.08627,-0.89755 3.31091,-2.39253 6.06031,-4.18117 l 5.02938,-3.2719 z"
         style="font-style:normal;font-variant:normal;font-weight:normal;font-stretch:normal;font-size:40px;font-family:'Trajan Pro';-inkscape-font-specification:'Trajan Pro';letter-spacing:-0.03px;fill:#000000;stroke:#000000;stroke-width:0.69999999;stroke-miterlimit:4;stroke-dasharray:none;stroke-opacity:1"
         id="path4611"
         inkscape:connector-curvature="0" />
      <path
         d="m 545.75181,289.74667 c -5.55401,2.57047 -10.394,9.35034 -6.34508,18.09881 3.56171,7.69576 11.62979,10.17649 18.52693,6.98439 7.18755,-3.32649 9.05986,-10.80446 5.73337,-17.99201 -4.08252,-8.82108 -12.94202,-9.39286 -17.91522,-7.09119 z m 2.36376,2.91695 c 6.71564,-3.10809 11.83616,-0.80585 14.30583,4.53035 2.33527,5.04581 0.53435,11.34475 -6.871,14.77205 -8.92998,4.13292 -13.12589,-0.93328 -14.45313,-3.80104 -2.67128,-5.77181 -0.16924,-12.17486 7.0183,-15.50136 z"
         style="font-style:normal;font-variant:normal;font-weight:normal;font-stretch:normal;font-size:40px;font-family:'Trajan Pro';-inkscape-font-specification:'Trajan Pro';letter-spacing:-0.03px;fill:#000000;stroke:#000000;stroke-width:0.69999999;stroke-miterlimit:4;stroke-dasharray:none;stroke-opacity:1"
         id="path4613"
         inkscape:connector-curvature="0" />
      <path
         d="m 557.3794,324.52171 c -3.12786,0.98736 -5.68355,1.79411 -7.07882,2.02483 -1.00178,0.14844 -1.63617,0.26481 -1.99345,-0.33548 -0.17262,-0.28108 -0.38136,-0.67659 -0.47769,-0.98175 -0.0602,-0.19072 -0.23686,-0.21884 -0.35129,-0.18272 -0.19073,0.0602 -0.20681,0.27501 -0.0984,0.61831 0.32511,1.02991 1.14996,3.24432 1.162,3.28246 0.0482,0.15258 0.60803,2.3248 1.186,4.15575 0.12041,0.38144 0.28301,0.4979 0.43559,0.44973 0.11443,-0.0361 0.25497,-0.12243 0.18272,-0.3513 -0.0963,-0.30515 -0.24882,-1.05398 -0.31702,-1.5358 -0.17253,-1.07807 0.37758,-1.46145 1.29507,-1.87691 1.2869,-0.57402 3.80445,-1.36872 6.93231,-2.35609 l 0.76289,-0.24082 c 0.19072,-0.0602 0.29109,-0.008 0.33926,0.14458 l 1.27231,4.29628 c 0.0722,0.22887 0.0582,0.3172 -0.0462,0.51794 -0.64855,1.00169 -2.27691,3.15159 -3.58604,5.11683 -1.83921,2.67786 -3.01782,4.39217 -3.32316,6.08249 -0.19283,0.98367 -0.11865,1.88306 0.4834,3.79029 l 0.66226,2.09796 c 0.19266,0.61031 0.32915,0.77695 0.51988,0.71675 0.11443,-0.0361 0.23089,-0.19872 0.17068,-0.38945 -0.0602,-0.19072 -0.16857,-0.53402 -0.25884,-1.2186 -0.15047,-0.87531 -0.1945,-2.07783 1.07051,-4.4486 1.40758,-2.58355 3.61021,-5.83754 6.17627,-9.66764 3.65749,2.28498 6.29738,2.54224 8.70049,1.78366 2.25054,-0.71043 3.34487,-2.69175 3.69028,-3.72359 0.66674,-2.13996 0.11092,-4.56514 -0.56338,-6.70124 -0.32511,-1.0299 -1.29244,-3.82852 -1.40081,-4.17182 -0.0602,-0.19073 -0.69433,-2.46534 -1.17598,-3.99113 -0.12041,-0.38145 -0.24486,-0.50994 -0.43558,-0.44974 -0.11444,0.0361 -0.21885,0.23687 -0.18273,0.3513 0.0963,0.30516 0.2388,0.88937 0.28494,1.16842 0.19662,1.15436 -0.2772,1.51366 -1.35932,1.93914 -1.00582,0.4014 -1.92129,0.69038 -6.95638,2.2798 l -5.7217,1.80616 z m 14.30389,-1.32742 c 0.19072,-0.0602 0.34128,0.0181 0.46573,0.1466 0.18466,0.31922 0.63624,1.35115 0.94931,2.34291 1.13186,3.5856 -0.49658,6.53249 -4.53991,7.80884 -2.47941,0.78267 -4.47286,0.44719 -5.59698,-0.45633 -0.78689,-0.63246 -1.11402,-1.53589 -1.36688,-2.33693 -0.4696,-1.48764 -0.78258,-3.2764 -0.6721,-3.85656 0.0663,-0.1887 0.15662,-0.30112 0.34734,-0.36132 l 10.41349,-3.28721 z"
         style="font-style:normal;font-variant:normal;font-weight:normal;font-stretch:normal;font-size:40px;font-family:'Trajan Pro';-inkscape-font-specification:'Trajan Pro';letter-spacing:-0.03px;fill:#000000;stroke:#000000;stroke-width:0.69999999;stroke-miterlimit:4;stroke-dasharray:none;stroke-opacity:1"
         id="path4615"
         inkscape:connector-curvature="0" />
      <path
         d="m 571.43138,353.07503 c 5.16005,-1.1191 6.09823,-1.32257 7.16218,-1.51238 1.18969,-0.17616 1.70117,-0.0824 2.1001,0.81336 0.16296,0.37395 0.21383,0.6085 0.2647,0.84305 0.0254,0.11727 0.21571,0.23972 0.33298,0.21429 0.19546,-0.0424 0.23973,-0.21571 0.15495,-0.60663 -0.22891,-1.05546 -0.79034,-3.2667 -0.82425,-3.42307 -0.0424,-0.19545 -0.4305,-2.36242 -0.67636,-3.49607 -0.0848,-0.39091 -0.19688,-0.53032 -0.39233,-0.48793 -0.11728,0.0254 -0.24821,0.17662 -0.21429,0.33298 0.0509,0.23455 0.10503,0.67303 0.11163,1.0809 0.005,0.77665 -0.44412,1.1605 -1.56081,1.48454 -1.03851,0.30709 -1.9767,0.51057 -7.13674,1.62967 l -5.86368,1.2717 c -3.20548,0.6952 -5.83307,1.22414 -7.23517,1.3645 -1.00272,0.0947 -1.65361,0.11306 -1.9541,-0.51758 -0.14601,-0.29578 -0.31745,-0.70882 -0.38527,-1.02155 -0.0424,-0.19546 -0.21572,-0.23973 -0.33299,-0.2143 -0.19545,0.0424 -0.23125,0.25481 -0.15494,0.60663 0.2289,1.05546 0.81247,3.18004 0.85486,3.3755 0.0339,0.15636 0.39988,2.41 0.81531,4.32547 0.0848,0.39091 0.23596,0.52184 0.39233,0.48793 0.11727,-0.0254 0.25668,-0.13753 0.21429,-0.33299 -0.0678,-0.31273 -0.15072,-1.07242 -0.18276,-1.59756 -0.0641,-1.05028 0.53597,-1.3032 1.48781,-1.63243 1.33428,-0.45309 3.95339,-1.02112 7.15887,-1.71632 l 5.86368,-1.27171 z"
         style="font-style:normal;font-variant:normal;font-weight:normal;font-stretch:normal;font-size:40px;font-family:'Trajan Pro';-inkscape-font-specification:'Trajan Pro';letter-spacing:-0.03px;fill:#000000;stroke:#000000;stroke-width:0.69999999;stroke-miterlimit:4;stroke-dasharray:none;stroke-opacity:1"
         id="path4617"
         inkscape:connector-curvature="0" />
      <path
         d="m 583.12991,373.11053 0.47515,4.375 c 0.34408,3.3433 -0.31408,4.19302 -1.33066,4.44313 l -0.35209,0.0851 c -0.47113,0.10017 -0.58009,0.19465 -0.55993,0.35338 0.0202,0.15872 0.19905,0.29728 0.47682,0.262 0.39681,-0.0504 2.83248,-0.23887 3.86419,-0.36994 0.1984,-0.0252 0.39681,-0.0504 0.37664,-0.20913 -0.0202,-0.15873 -0.13985,-0.46609 -0.28475,-0.97187 -0.14993,-0.54545 -0.33011,-1.32899 -0.4763,-2.47974 l -1.67362,-13.17412 c -0.0504,-0.39681 -0.18212,-1.75101 -0.18911,-2.75816 -0.002,-0.96747 0.23046,-1.35988 0.20021,-1.59797 -0.0151,-0.11904 -0.47682,-0.262 -0.68026,-0.27647 -0.28785,-0.0441 -3.38931,-0.33554 -3.74644,-0.29017 -0.19841,0.0252 -0.2576,0.19401 -0.24752,0.27337 0.0202,0.15873 0.075,0.27273 0.36282,0.3168 0.2532,0.0888 0.49633,0.0982 1.14196,0.41943 0.85915,0.41504 1.2031,1.21809 1.52004,3.39551 l 0.71957,5.02942 -14.16615,1.79964 c -3.25384,0.41336 -5.91248,0.75111 -7.32148,0.76882 -1.00715,0.007 -1.70693,-0.10572 -1.9564,-0.79982 -0.11969,-0.30737 -0.24946,-0.69409 -0.28979,-1.01154 -0.0252,-0.19841 -0.15433,-0.26265 -0.27337,-0.24752 -0.1984,0.0252 -0.2576,0.19401 -0.20719,0.59082 0.13106,1.03171 0.55761,3.43713 0.57777,3.59585 0.0252,0.19841 0.18846,2.43567 0.43043,4.34036 0.0504,0.39682 0.18962,0.54042 0.34834,0.52025 0.11905,-0.0151 0.27273,-0.075 0.24248,-0.31305 -0.0403,-0.31745 -0.0618,-1.12115 -0.0429,-1.60741 0.0226,-1.09155 0.63735,-1.33093 1.61425,-1.576 1.36867,-0.33516 4.02731,-0.67291 7.28116,-1.08627 l 14.16614,-1.79965 z"
         style="font-style:normal;font-variant:normal;font-weight:normal;font-stretch:normal;font-size:40px;font-family:'Trajan Pro';-inkscape-font-specification:'Trajan Pro';letter-spacing:-0.03px;fill:#000000;stroke:#000000;stroke-width:0.69999999;stroke-miterlimit:4;stroke-dasharray:none;stroke-opacity:1"
         id="path4619"
         inkscape:connector-curvature="0" />
      <path
         d="m 566.69328,397.37861 c -0.55983,0.0136 -1.99941,0.0485 -3.40094,0.002 -1.00164,-0.0557 -1.64727,-0.28017 -1.82467,-0.99608 -0.0877,-0.31797 -0.1774,-0.71591 -0.18515,-1.03582 -0.005,-0.19994 -0.16674,-0.27604 -0.2867,-0.27313 -0.19995,0.005 -0.27604,0.16674 -0.26635,0.56662 0.0252,1.03969 0.19944,3.27613 0.20332,3.43608 0.005,0.19994 -0.0599,2.48218 -0.0124,4.4416 0.009,0.3599 0.13354,0.55693 0.29349,0.55306 0.11996,-0.003 0.27798,-0.0868 0.27313,-0.28671 -0.008,-0.3199 0.0528,-1.12161 0.12118,-1.6034 0.13476,-1.04358 0.76875,-1.29901 1.76652,-1.40322 1.39668,-0.15389 2.83626,-0.18878 3.39609,-0.20235 l 2.91915,-0.0708 c 1.11967,-0.0271 2.19547,-0.21326 3.40966,0.35749 1.45702,0.68489 9.57486,5.44958 10.96257,6.57629 0.93815,0.73748 1.3058,1.04866 1.72216,1.71877 0.33347,0.55208 0.46991,1.22898 0.47961,1.62886 0.007,0.27992 0.2106,0.43502 0.37055,0.43115 0.11997,-0.003 0.1951,-0.20479 0.18928,-0.44472 -0.0165,-0.6798 -0.15751,-3.19712 -0.16333,-3.43705 -0.007,-0.27992 0.0431,-1.52149 0.0208,-2.44122 -0.009,-0.3599 -0.0935,-0.5579 -0.21351,-0.55499 -0.15995,0.004 -0.31506,0.20769 -0.38728,0.52954 -0.11027,0.40279 -0.38631,0.56952 -0.86617,0.58116 -0.43987,0.0107 -1.00359,-0.13573 -1.77403,-0.55718 -1.13517,-0.61267 -8.51966,-4.83498 -9.97668,-5.51987 l 10.44181,-6.65498 c 0.43405,-0.25059 0.82812,-0.50021 1.30798,-0.51184 0.27992,-0.007 0.44375,0.14929 0.5705,0.4263 0.12772,0.317 0.2535,0.55402 0.37346,0.55111 0.15995,-0.004 0.23799,-0.0858 0.2283,-0.48567 -0.033,-1.3596 -0.14783,-2.79724 -0.15364,-3.03717 -0.004,-0.15995 0.0121,-2.80112 -0.004,-3.48092 -0.008,-0.3199 -0.0906,-0.43793 -0.25059,-0.43405 -0.15995,0.004 -0.31603,0.1677 -0.31118,0.36765 0.007,0.27991 -0.13669,0.96359 -0.444,1.49119 -0.42436,0.65048 -1.16379,1.50865 -2.42306,2.37941 -1.77039,1.24327 -9.21283,6.18506 -9.72589,6.47758 -0.94712,0.54311 -1.6211,0.79951 -3.46056,0.8441 l -2.91915,0.0708 z"
         style="font-style:normal;font-variant:normal;font-weight:normal;font-stretch:normal;font-size:40px;font-family:'Trajan Pro';-inkscape-font-specification:'Trajan Pro';letter-spacing:-0.03px;fill:#000000;stroke:#000000;stroke-width:0.69999999;stroke-miterlimit:4;stroke-dasharray:none;stroke-opacity:1"
         id="path4621"
         inkscape:connector-curvature="0" />
    </g>
    <path
       style="fill:none;fill-opacity:1;stroke:#ea0000;stroke-width:2.58457613;stroke-linecap:square;stroke-linejoin:bevel;stroke-miterlimit:4;stroke-dasharray:none;stroke-dashoffset:0;stroke-opacity:1"
       id="path4290-1"
       ry="222.76114"
       rx="213.56389"
       cy="-429.60791"
       cx="-316.22021"
       d=""
       inkscape:connector-curvature="0" />
    <ellipse
       style="fill:none;fill-opacity:1;stroke:none;stroke-width:2.84665275;stroke-linecap:square;stroke-linejoin:bevel;stroke-miterlimit:4;stroke-dasharray:none;stroke-dashoffset:0;stroke-opacity:1"
       id="path4290-4"
       transform="matrix(-0.85409577,0.52011578,0.5332411,0.84596332,0,0)"
       ry="127.64664"
       rx="126.28056"
       cy="189.29588"
       cx="3.5054626" />
    <g
       style="font-style:normal;font-variant:normal;font-weight:bold;font-stretch:normal;font-size:50px;line-height:125%;font-family:'Swis721 BT';-inkscape-font-specification:'Swis721 BT, Bold';text-align:start;letter-spacing:0px;word-spacing:0px;writing-mode:lr-tb;text-anchor:start;fill:#000000;fill-opacity:1;stroke:none;stroke-width:1px;stroke-linecap:butt;stroke-linejoin:miter;stroke-opacity:1"
       id="text4345"
       transform="matrix(0.53781406,0,0,0.51934849,-84.974094,-40.850294)">
      <path
         d="m 147.60956,513.52683 1.97975,2.92734 q -2.39603,1.68674 -2.78039,4.22349 -0.37411,2.55191 1.40049,5.17589 1.75408,2.59365 3.85141,3.34151 2.10758,0.76303 3.98835,-0.50894 2.56331,-1.73356 0.10268,-8.24824 -0.14984,-0.38497 -0.22743,-0.59775 -2.00044,-5.27857 -1.67587,-7.64224 0.35,-2.35877 2.79197,-4.01028 2.988,-2.02078 6.27006,-1.05733 3.29723,0.95319 5.74884,4.57823 2.5029,3.70088 2.02788,7.11681 -0.45986,3.40568 -3.76103,5.68247 l -1.9744,-2.88674 q 2.14221,-1.66983 2.40699,-3.86044 0.27503,-2.17544 -1.33544,-4.55674 -1.50789,-2.22963 -3.39647,-2.89762 -1.8734,-0.67824 -3.49633,0.41934 -2.59365,1.75408 -0.13389,8.13672 0.35675,0.95239 0.54805,1.46406 l 0.13958,0.3698 q 1.5768,4.19457 1.37585,6.05465 -0.15317,1.40778 -0.92724,2.61653 -0.7589,1.1985 -2.09365,2.10118 -3.23068,2.18491 -6.71123,1.15676 -3.47029,-1.01299 -6.13732,-4.95655 -2.74908,-4.06489 -2.24013,-7.72482 0.53437,-3.65503 4.25892,-6.41709 z"
         style="font-style:normal;font-variant:normal;font-weight:normal;font-stretch:normal;font-size:37.5px;font-family:'Swis721 BT';-inkscape-font-specification:'Swis721 BT'"
         id="path4624"
         inkscape:connector-curvature="0" />
      <path
         d="m 163.65356,534.73293 q -2.81764,2.31045 -3.33162,4.74465 -0.48822,2.43676 1.35782,4.68804 1.83442,2.23713 4.29638,2.2074 2.47612,-0.0413 5.29376,-2.35177 2.80349,-2.29884 3.31492,-4.70727 0.52559,-2.42005 -1.30883,-4.65717 -1.85765,-2.26545 -4.33122,-2.24988 -2.47357,0.0156 -5.29121,2.326 z m -2.13629,-2.60525 q 3.80877,-3.12317 7.4884,-2.9674 3.69124,0.16992 6.51254,3.61056 2.83291,3.4548 2.27644,7.10781 -0.5423,3.6414 -4.36524,6.77617 -3.82293,3.13478 -7.51417,2.96485 -3.67963,-0.15576 -6.50093,-3.5964 -2.8329,-3.4548 -2.2906,-7.0962 0.55647,-3.65301 4.39356,-6.79939 z"
         style="font-style:normal;font-variant:normal;font-weight:normal;font-stretch:normal;font-size:37.5px;font-family:'Swis721 BT';-inkscape-font-specification:'Swis721 BT'"
         id="path4626"
         inkscape:connector-curvature="0" />
      <path
         d="m 168.68952,555.81387 19.76638,-18.35071 2.27983,2.4557 -19.76638,18.35071 -2.27983,-2.4557 z"
         style="font-style:normal;font-variant:normal;font-weight:normal;font-stretch:normal;font-size:37.5px;font-family:'Swis721 BT';-inkscape-font-specification:'Swis721 BT'"
         id="path4628"
         inkscape:connector-curvature="0" />
      <path
         d="m 190.97095,545.581 2.66148,-2.64698 2.32418,2.33691 -2.66149,2.64698 -2.32417,-2.33691 z m -16.46225,16.37252 13.90463,-13.82884 2.32417,2.33691 -13.90462,13.82884 -2.32418,-2.33691 z"
         style="font-style:normal;font-variant:normal;font-weight:normal;font-stretch:normal;font-size:37.5px;font-family:'Swis721 BT';-inkscape-font-specification:'Swis721 BT'"
         id="path4630"
         inkscape:connector-curvature="0" />
      <path
         d="m 197.47648,569.81024 q 2.4171,-2.72669 2.53401,-5.09444 0.13062,-2.3556 -2.0343,-4.27471 -2.0827,-1.84623 -4.5682,-1.33345 -2.47335,0.49908 -4.93904,3.28058 -2.22277,2.50746 -2.33346,4.97861 -0.097,2.48328 1.94461,4.29308 2.069,1.83408 4.51806,1.36241 2.44907,-0.47168 4.87832,-3.21208 z m 13.59795,-10.70227 -17.89144,20.18302 -2.38414,-2.11344 1.63974,-1.84977 q -1.96572,0.31287 -3.66794,-0.16837 -1.70221,-0.48124 -3.14092,-1.7566 -2.93223,-2.5993 -2.8277,-6.25042 0.13037,-3.65268 3.2641,-7.1878 3.19447,-3.60362 6.83099,-4.17271 3.64868,-0.58279 6.5672,2.00437 1.53462,1.36038 2.20285,2.98044 0.69408,1.61851 0.54916,3.52099 l 6.47396,-7.30316 2.38414,2.11345 z"
         style="font-style:normal;font-variant:normal;font-weight:normal;font-stretch:normal;font-size:37.5px;font-family:'Swis721 BT';-inkscape-font-specification:'Swis721 BT'"
         id="path4632"
         inkscape:connector-curvature="0" />
      <path
         d="m 213.17381,578.32839 q 0.54994,-0.77727 1.44325,-0.93029 0.91884,-0.15738 1.69612,0.39255 0.77727,0.54994 0.93466,1.46878 0.18291,0.91447 -0.36703,1.69174 -0.53936,0.76233 -1.47315,0.90914 -0.90826,0.14244 -1.68553,-0.4075 -0.77728,-0.54994 -0.94524,-1.45383 -0.14244,-0.90826 0.39692,-1.67059 z"
         style="font-style:normal;font-variant:normal;font-weight:normal;font-stretch:normal;font-size:37.5px;font-family:'Swis721 BT';-inkscape-font-specification:'Swis721 BT'"
         id="path4634"
         inkscape:connector-curvature="0" />
      <path
         d="m 237.34506,581.08776 -4.38058,8.01839 5.49557,3.00233 q 2.97275,1.62406 4.72071,1.32711 1.76403,-0.28818 2.99305,-2.53782 1.15001,-2.10503 0.4671,-3.60482 -0.68291,-1.49979 -3.80028,-3.20286 l -5.49557,-3.00233 z m -1.63079,-4.50055 9.17535,5.01265 q 2.23358,1.22024 3.17272,1.98369 0.9552,0.77222 1.54498,1.67864 1.0467,1.63594 1.01914,3.51959 -0.0115,1.89243 -1.09127,3.8689 -1.04467,1.91221 -2.61037,2.83035 -1.55693,0.90207 -3.60127,0.78673 1.17124,1.14063 1.24933,2.37259 0.0942,1.24074 -0.95512,3.50512 l -1.86006,4.05399 q -0.60439,1.29727 -0.70573,2.05563 -0.0765,0.75108 0.28119,1.28033 l -0.35993,0.65882 -3.71192,-2.02788 q -0.0461,-0.98498 1.10272,-3.50795 l 0.0527,-0.0964 1.49269,-3.19058 q 1.13856,-2.46599 0.67317,-3.63829 -0.46539,-1.17231 -3.872,-3.0334 l -5.20633,-2.8443 -5.53937,10.13948 -3.18165,-1.73818 12.93106,-23.66952 z"
         style="font-style:normal;font-variant:normal;font-weight:normal;font-stretch:normal;font-size:37.5px;font-family:'Swis721 BT';-inkscape-font-specification:'Swis721 BT'"
         id="path4636"
         inkscape:connector-curvature="0" />
      <path
         d="m 251.33761,602.0487 9.89507,4.2435 q 1.0657,-2.53147 0.38814,-4.43583 -0.67035,-1.92119 -2.99266,-2.91711 -2.23817,-0.95984 -4.1113,-0.16927 -1.85631,0.79779 -3.17925,3.27871 z m 7.75653,9.04437 2.99544,1.28459 q -1.7654,2.76933 -4.60506,3.58372 -2.83966,0.81439 -6.03705,-0.55681 -3.75272,-1.60935 -4.84105,-5.06458 -1.08833,-3.45522 0.78083,-7.81377 1.97741,-4.61096 5.24283,-6.27878 3.26542,-1.66781 7.0518,-0.044 3.88735,1.66709 4.98293,4.96604 1.11241,3.30616 -0.75675,7.6647 -0.23815,0.55534 -0.37045,0.81737 -0.11547,0.26926 -0.25738,0.50725 l -13.00832,-5.57861 q -1.16916,2.86564 -0.47723,5.01524 0.69915,2.13277 3.12244,3.172 1.85111,0.79385 3.45007,0.36386 1.623,-0.43961 2.72695,-2.0382 z"
         style="font-style:normal;font-variant:normal;font-weight:normal;font-stretch:normal;font-size:37.5px;font-family:'Swis721 BT';-inkscape-font-specification:'Swis721 BT'"
         id="path4638"
         inkscape:connector-curvature="0" />
      <path
         d="m 264.14649,613.09846 3.00391,1.0055 q -0.45988,1.95076 0.39536,3.31834 0.87261,1.3734 3.06043,2.10573 2.01418,0.6742 3.43909,0.28225 1.43072,-0.40931 1.88988,-1.78104 0.34291,-1.02445 -0.0673,-1.76034 -0.38701,-0.74743 -1.9376,-1.71057 l -3.18786,-2.07114 q -2.71352,-1.69997 -3.48747,-3.25275 -0.75077,-1.56432 -0.0243,-3.73478 0.82532,-2.46563 3.16563,-3.28492 2.36349,-0.83083 5.61049,0.25603 3.31645,1.11012 4.76126,3.31225 1.44482,2.20213 0.573,4.80668 l -0.0233,0.0694 -3.03863,-1.01712 q 0.38984,-1.51078 -0.45407,-2.68148 -0.82074,-1.18226 -2.71337,-1.81578 -1.89264,-0.63352 -3.10323,-0.30499 -1.19322,0.33434 -1.6175,1.60188 -0.30223,0.90291 0.13113,1.62724 0.45654,0.71279 2.01294,1.65856 l 2.78298,1.72322 q 2.9739,1.84505 3.78832,3.44999 0.82022,1.58757 0.0821,3.79275 -0.97063,2.89973 -3.56006,3.82872 -2.56626,0.91743 -6.22999,-0.30893 -3.5769,-1.19729 -4.93468,-3.54407 -1.34041,-2.34097 -0.31726,-5.57068 z"
         style="font-style:normal;font-variant:normal;font-weight:normal;font-stretch:normal;font-size:37.5px;font-family:'Swis721 BT';-inkscape-font-specification:'Swis721 BT'"
         id="path4640"
         inkscape:connector-curvature="0" />
      <path
         d="m 286.46432,616.69765 q -0.85876,3.56 0.11377,5.697 0.99462,2.12351 3.82482,2.80621 2.7056,0.65266 4.63751,-0.95325 1.95401,-1.61942 2.82565,-5.23282 0.78576,-3.25739 -0.2942,-5.49566 -1.06215,-2.23397 -3.69655,-2.86944 -2.7056,-0.65266 -4.62892,0.91765 -1.92333,1.57031 -2.78208,5.13031 z m -7.13085,16.28685 6.43637,-26.68219 3.13279,0.75571 -0.64836,2.6878 q 1.60481,-1.42112 3.27542,-1.86574 1.68842,-0.44032 3.73542,0.0535 3.8092,0.91887 5.40856,4.20538 1.61716,3.2908 0.50507,7.901 -1.12497,4.66359 -4.0867,6.8687 -2.96174,2.2051 -6.75313,1.29053 -2.0114,-0.4852 -3.37045,-1.56646 -1.33696,-1.09478 -2.10197,-2.84268 l -2.40022,9.95019 -3.1328,-0.7557 z"
         style="font-style:normal;font-variant:normal;font-weight:normal;font-stretch:normal;font-size:37.5px;font-family:'Swis721 BT';-inkscape-font-specification:'Swis721 BT'"
         id="path4642"
         inkscape:connector-curvature="0" />
      <path
         d="m 306.54516,620.9382 q -0.51902,3.60664 0.74504,5.74946 1.28479,2.12731 4.16648,2.542 2.86357,0.41209 4.65983,-1.27183 1.79887,-1.70204 2.31789,-5.30868 0.51642,-3.58852 -0.73213,-5.71061 -1.24594,-2.14022 -4.10951,-2.5523 -2.89981,-0.41731 -4.71419,1.264 -1.81439,1.68131 -2.33341,5.28796 z m -3.33479,-0.47991 q 0.7016,-4.87531 3.52142,-7.24439 2.83794,-2.36648 7.24203,-1.7327 4.42222,0.63639 6.47771,3.70707 2.05811,3.05256 1.35391,7.94599 -0.70421,4.89344 -3.54215,7.25992 -2.81982,2.36908 -7.22391,1.7353 -4.42222,-0.63639 -6.48032,-3.68895 -2.0555,-3.07067 -1.34869,-7.98224 z"
         style="font-style:normal;font-variant:normal;font-weight:normal;font-stretch:normal;font-size:37.5px;font-family:'Swis721 BT';-inkscape-font-specification:'Swis721 BT'"
         id="path4644"
         inkscape:connector-curvature="0" />
      <path
         d="m 337.48772,633.86176 0.60787,-12.05133 q 0.14574,-2.8894 -0.69499,-4.03183 -0.82152,-1.1598 -2.97942,-1.26865 -2.76138,-0.13929 -4.37685,1.35594 -1.59625,1.47786 -1.74107,4.34896 l -0.56267,11.15526 -3.29172,-0.16604 0.98792,-19.5857 3.14541,0.15866 -0.1439,2.85282 q 1.2196,-1.64353 2.81553,-2.38805 1.59593,-0.74453 3.64411,-0.64121 2.21276,0.11161 3.69648,0.8648 1.48463,0.7349 2.24023,2.11139 0.4212,0.73626 0.57348,1.71563 0.15319,0.96109 0.048,3.04584 l -0.047,0.93265 -0.59312,11.75874 -3.32828,-0.16788 z"
         style="font-style:normal;font-variant:normal;font-weight:normal;font-stretch:normal;font-size:37.5px;font-family:'Swis721 BT';-inkscape-font-specification:'Swis721 BT'"
         id="path4646"
         inkscape:connector-curvature="0" />
      <path
         d="m 344.16665,627.68533 3.16568,-0.1138 q 0.25468,1.98798 1.53583,2.96798 1.29945,0.97934 3.60509,0.89646 2.12265,-0.0763 3.31907,-0.94381 1.19575,-0.88582 1.14379,-2.33142 -0.0388,-1.07962 -0.68136,-1.62452 -0.62491,-0.56385 -2.41501,-0.92092 l -3.71225,-0.81931 q -3.13776,-0.63843 -4.40784,-1.82037 -1.25245,-1.2009 -1.33467,-3.48824 -0.0934,-2.59842 1.80996,-4.1876 1.92101,-1.60813 5.34287,-1.73114 3.49506,-0.12564 5.62136,1.42862 2.1263,1.55426 2.22496,4.29907 l 0.003,0.0732 -3.20228,0.11511 q -0.16571,-1.55144 -1.36708,-2.35108 -1.18374,-0.8186 -3.1783,-0.74691 -1.99456,0.0717 -3.01259,0.80455 -0.99974,0.73219 -0.95172,2.06799 0.0342,0.95154 0.6944,1.47748 0.67783,0.50698 2.46728,0.84575 l 3.21094,0.63579 q 3.43251,0.68279 4.75881,1.89936 1.32564,1.19827 1.40918,3.52221 0.10985,3.05589 -1.98823,4.83529 -2.08043,1.76044 -5.94146,1.89923 -3.76954,0.13551 -5.86516,-1.58475 -2.07733,-1.72092 -2.25391,-5.10421 z"
         style="font-style:normal;font-variant:normal;font-weight:normal;font-stretch:normal;font-size:37.5px;font-family:'Swis721 BT';-inkscape-font-specification:'Swis721 BT'"
         id="path4648"
         inkscape:connector-curvature="0" />
      <path
         d="m 362.13299,609.92576 -0.3545,-3.73688 3.28116,-0.31127 0.3545,3.73688 -3.28116,0.31127 z m 2.19271,23.114 -1.85205,-19.52294 3.28117,-0.31127 1.85205,19.52294 -3.28117,0.31127 z"
         style="font-style:normal;font-variant:normal;font-weight:normal;font-stretch:normal;font-size:37.5px;font-family:'Swis721 BT';-inkscape-font-specification:'Swis721 BT'"
         id="path4650"
         inkscape:connector-curvature="0" />
      <path
         d="m 377.34669,631.52394 -10.12286,-18.28701 3.49307,-0.5359 7.79394,14.69853 2.90244,-16.33956 3.49307,-0.5359 -4.10279,20.46949 -3.45687,0.53035 z"
         style="font-style:normal;font-variant:normal;font-weight:normal;font-stretch:normal;font-size:37.5px;font-family:'Swis721 BT';-inkscape-font-specification:'Swis721 BT'"
         id="path4652"
         inkscape:connector-curvature="0" />
      <path
         d="m 390.15094,617.5 10.4663,-2.52515 q -0.66197,-2.66567 -2.34481,-3.78538 -1.68713,-1.1375 -4.1435,-0.54486 -2.36738,0.57116 -3.39441,2.32582 -1.00923,1.75037 -0.58358,4.52957 z m 11.62761,2.60058 3.16837,-0.76441 q 0.24393,3.27511 -1.54302,5.6275 -1.78694,2.35239 -5.16891,3.16833 -3.96936,0.95767 -6.9097,-1.15832 -2.94035,-2.11599 -4.05262,-6.72614 -1.17668,-4.87715 0.44035,-8.16802 1.61703,-3.29086 5.62199,-4.25712 4.11176,-0.99202 6.96435,0.99446 2.87039,1.98217 3.98266,6.59233 0.14172,0.58739 0.19263,0.87648 0.0687,0.2848 0.0975,0.56039 l -13.75927,3.31962 q 0.77917,2.99528 2.62034,4.30282 1.83687,1.28973 4.40005,0.67133 1.95798,-0.47239 2.98128,-1.77409 1.0368,-1.32379 0.96397,-3.26516 z"
         style="font-style:normal;font-variant:normal;font-weight:normal;font-stretch:normal;font-size:37.5px;font-family:'Swis721 BT';-inkscape-font-specification:'Swis721 BT'"
         id="path4654"
         inkscape:connector-curvature="0" />
      <path
         d="m 415.99115,608.82478 q -0.32586,-0.89466 0.057,-1.71615 0.39378,-0.84497 1.28844,-1.17082 0.89465,-0.32586 1.73962,0.0679 0.85591,0.37032 1.18176,1.26497 0.31959,0.87745 -0.0914,1.72868 -0.40005,0.82777 -1.29471,1.15362 -0.89465,0.32586 -1.73335,-0.0507 -0.82776,-0.40005 -1.14735,-1.2775 z"
         style="font-style:normal;font-variant:normal;font-weight:normal;font-stretch:normal;font-size:37.5px;font-family:'Swis721 BT';-inkscape-font-specification:'Swis721 BT'"
         id="path4656"
         inkscape:connector-curvature="0" />
      <path
         d="m 443.37728,611.55282 -18.86183,-20.51513 3.152,-1.67742 14.99874,16.45209 -5.10629,-21.71661 3.3783,-1.79785 15.26937,16.14214 -5.13446,-21.53569 3.07119,-1.63441 6.3508,27.1732 -3.18434,1.69463 -15.858,-16.74153 5.23817,22.39314 -3.31365,1.76344 z"
         style="font-style:normal;font-variant:normal;font-weight:normal;font-stretch:normal;font-size:37.5px;font-family:'Swis721 BT';-inkscape-font-specification:'Swis721 BT'"
         id="path4658"
         inkscape:connector-curvature="0" />
      <path
         d="m 464.54273,588.22468 q 2.07721,2.99374 4.4624,3.70114 2.38979,0.68192 4.78177,-0.97776 2.37694,-1.64924 2.54461,-4.10567 0.15723,-2.47146 -1.91998,-5.4652 -2.06677,-2.97869 -4.42648,-3.68149 -2.37014,-0.71784 -4.74708,0.9314 -2.40702,1.67012 -2.58974,4.13699 -0.18271,2.46686 1.8945,5.46059 z m -2.76808,1.92064 q -2.80789,-4.04681 -2.35774,-7.70212 0.46519,-3.66575 4.12085,-6.20224 3.67072,-2.54694 7.26738,-1.69952 3.58623,0.83238 6.40456,4.89423 2.81832,4.06186 2.35314,7.72761 -0.45015,3.65531 -4.10582,6.1918 -3.67071,2.54694 -7.25694,1.71456 -3.59666,-0.84742 -6.42543,-4.92432 z"
         style="font-style:normal;font-variant:normal;font-weight:normal;font-stretch:normal;font-size:37.5px;font-family:'Swis721 BT';-inkscape-font-specification:'Swis721 BT'"
         id="path4660"
         inkscape:connector-curvature="0" />
      <path
         d="m 485.96934,584.90664 -12.31772,-15.25939 2.47912,-2.0012 2.20822,2.73558 q -0.62947,-2.03332 -0.19894,-3.62803 0.43328,-1.62047 1.95779,-2.85109 0.28496,-0.23002 0.42469,-0.31929 0.12823,-0.10351 0.27946,-0.17852 l 2.18522,2.70708 q -0.11123,0.0663 -0.23947,0.16977 -0.13973,0.0893 -0.39619,0.29629 -2.05168,1.65616 -2.22592,3.65582 -0.1715,1.97392 1.55367,4.11109 l 6.85468,8.49169 -2.56461,2.0702 z"
         style="font-style:normal;font-variant:normal;font-weight:normal;font-stretch:normal;font-size:37.5px;font-family:'Swis721 BT';-inkscape-font-specification:'Swis721 BT'"
         id="path4662"
         inkscape:connector-curvature="0" />
      <path
         d="m 495.58516,576.94035 -17.86796,-20.20382 2.51005,-2.21985 17.86796,20.20382 -2.51005,2.21985 z"
         style="font-style:normal;font-variant:normal;font-weight:normal;font-stretch:normal;font-size:37.5px;font-family:'Swis721 BT';-inkscape-font-specification:'Swis721 BT'"
         id="path4664"
         inkscape:connector-curvature="0" />
      <path
         d="m 504.79978,554.38893 q -2.58895,-2.5641 -4.94661,-2.81169 -2.34479,-0.2606 -4.38061,1.79494 -1.95852,1.97748 -1.58388,4.48752 0.36162,2.49716 3.0026,5.11281 2.38079,2.35794 4.84203,2.60503 2.47413,0.23409 4.39399,-1.70437 1.94563,-1.96447 1.61003,-4.43586 -0.3356,-2.47138 -2.93755,-5.04838 z m -9.93441,-14.16865 19.16338,18.97955 -2.24198,2.2637 -1.75632,-1.73947 q 0.20376,1.98001 -0.37083,3.65302 -0.57458,1.67302 -1.9275,3.03905 -2.75738,2.78409 -6.39715,2.47794 -3.63989,-0.33205 -6.99641,-3.65637 -3.42157,-3.38874 -3.78881,-7.05116 -0.38024,-3.67531 2.36425,-6.44638 1.44312,-1.4571 3.09764,-2.03477 1.65439,-0.60356 3.54595,-0.35373 l -6.9342,-6.86768 2.24198,-2.2637 z"
         style="font-style:normal;font-variant:normal;font-weight:normal;font-stretch:normal;font-size:37.5px;font-family:'Swis721 BT';-inkscape-font-specification:'Swis721 BT'"
         id="path4666"
         inkscape:connector-curvature="0" />
      <path
         d="m 510.17773,550.71404 -2.25393,-1.92842 5.89237,-6.88701 2.25393,1.92841 -5.89237,6.88702 z"
         style="font-style:normal;font-variant:normal;font-weight:normal;font-stretch:normal;font-size:37.5px;font-family:'Swis721 BT';-inkscape-font-specification:'Swis721 BT'"
         id="path4668"
         inkscape:connector-curvature="0" />
      <path
         d="m 522.24765,528.10341 q -1.70221,-1.08665 -3.35636,-0.67562 -1.65788,0.3854 -3.0152,2.20554 -1.59814,2.14306 -0.93259,4.46668 0.6765,2.30895 3.5388,4.44344 2.87699,2.14545 5.26482,2.19017 2.39877,0.0301 3.93123,-2.02494 1.37921,-1.84949 1.24607,-3.66188 -0.1222,-1.82706 -1.7453,-3.4486 l 1.88274,-2.5247 q 2.73841,2.36189 2.99946,5.41172 0.24637,3.03889 -2.06327,6.13605 -2.40815,3.22927 -6.00381,3.4259 -3.58472,0.18194 -7.44517,-2.69689 -3.94851,-2.94451 -4.7457,-6.53121 -0.81187,-3.59764 1.6948,-6.95902 2.21112,-2.96505 5.09152,-3.58086 2.87667,-0.64143 5.60637,1.21144 l -1.94841,2.61278 z"
         style="font-style:normal;font-variant:normal;font-weight:normal;font-stretch:normal;font-size:37.5px;font-family:'Swis721 BT';-inkscape-font-specification:'Swis721 BT'"
         id="path4670"
         inkscape:connector-curvature="0" />
      <path
         d="m 536.50015,530.35584 -22.54538,-14.80419 1.83922,-2.80096 22.54538,14.80419 -1.83922,2.80096 z"
         style="font-style:normal;font-variant:normal;font-weight:normal;font-stretch:normal;font-size:37.5px;font-family:'Swis721 BT';-inkscape-font-specification:'Swis721 BT'"
         id="path4672"
         inkscape:connector-curvature="0" />
      <path
         d="m 544.92431,511.47603 q 0.63319,2.13569 0.46723,4.04551 -0.15686,1.89393 -1.12197,3.57789 -1.49321,2.60537 -3.6812,3.293 -2.20388,0.67853 -4.60272,-0.69631 -2.31941,-1.32931 -2.81854,-3.51479 -0.49003,-2.20137 0.8131,-5.35887 0.3485,-0.79218 0.93391,-2.14503 1.02496,-2.30391 1.10069,-2.91475 0.0916,-0.60174 -0.11918,-0.93359 -0.22668,-0.34096 -1.25929,-0.93278 -1.30269,-0.7466 -2.50032,-0.16672 -1.19764,0.57988 -2.29933,2.50214 -1.13811,1.9858 -0.9265,3.45777 0.22071,1.45608 1.77758,2.34836 l -1.54783,2.70069 -0.12709,-0.0728 q -2.5736,-1.47499 -3.02896,-4.1419 -0.45536,-2.6669 1.36561,-5.84418 1.95755,-3.41558 4.16394,-4.2826 2.19961,-0.89203 4.91618,0.66491 l 8.5151,4.88022 q 1.09617,0.62823 1.55047,0.57203 0.4543,-0.0562 0.80939,-0.67576 0.0728,-0.12709 0.1571,-0.31095 0.0775,-0.20885 0.17551,-0.49034 l 2.20821,1.26558 q -0.15749,0.60619 -0.33745,1.03066 -0.15497,0.4177 -0.35528,0.7672 -0.81944,1.42977 -1.84873,1.78957 -1.02929,0.3598 -2.28431,-0.35949 l -0.0953,-0.0546 z m -6.54111,-3.39009 q -0.036,1.49891 -1.27983,4.47933 -0.43742,1.0578 -0.64024,1.5958 -0.63809,1.70254 -0.36237,2.76806 0.27571,1.06552 1.54663,1.79391 1.27091,0.72839 2.40927,0.32559 1.13835,-0.40281 1.98511,-1.88025 1.32021,-2.30352 1.00725,-4.44561 -0.31295,-2.14209 -2.124,-3.18005 l -2.54182,-1.45678 z"
         style="font-style:normal;font-variant:normal;font-weight:normal;font-stretch:normal;font-size:37.5px;font-family:'Swis721 BT';-inkscape-font-specification:'Swis721 BT'"
         id="path4674"
         inkscape:connector-curvature="0" />
      <path
         d="m 544.74093,504.02443 1.34731,-2.86692 q 1.88421,0.68317 3.34181,-0.008 1.46539,-0.70733 2.44667,-2.79537 0.9034,-1.92233 0.67946,-3.3831 -0.24051,-1.46855 -1.54968,-2.0838 -0.97774,-0.45949 -1.75626,-0.13747 -0.78729,0.29765 -1.92388,1.72599 l -2.4271,2.92596 q -2.0034,2.4979 -3.6355,3.08642 -1.64088,0.56416 -3.71236,-0.40934 -2.35319,-1.10588 -2.89534,-3.52546 -0.55093,-2.44394 0.90541,-5.54287 1.4875,-3.16521 3.84242,-4.34469 2.35493,-1.17949 4.8407,-0.0113 l 0.0663,0.0311 -1.36288,2.90006 q -1.45533,-0.56254 -2.71606,0.13981 -1.26952,0.67799 -2.1184,2.48431 -0.84889,1.80633 -0.66307,3.04686 0.1936,1.22397 1.40334,1.79248 0.86173,0.40498 1.63147,0.0586 0.76094,-0.37073 1.88095,-1.80686 l 2.03455,-2.56419 q 2.17771,-2.73968 3.86632,-3.36234 1.67204,-0.63044 3.77665,0.35862 2.76749,1.30059 3.38969,3.98034 0.61342,2.65539 -1.02984,6.15204 -1.60431,3.41378 -4.09281,4.49004 -2.4807,1.05967 -5.56985,-0.33138 z"
         style="font-style:normal;font-variant:normal;font-weight:normal;font-stretch:normal;font-size:37.5px;font-family:'Swis721 BT';-inkscape-font-specification:'Swis721 BT'"
         id="path4676"
         inkscape:connector-curvature="0" />
      <path
         d="m 552.38346,487.5933 1.12391,-2.96164 q 1.93097,0.53693 3.33142,-0.26338 1.40694,-0.81742 2.2255,-2.97446 0.75361,-1.98584 0.41851,-3.42518 -0.35222,-1.44583 -1.70465,-1.95906 -1.01004,-0.3833 -1.76162,-0.003 -0.76221,0.35705 -1.78612,1.8682 l -2.19601,3.10316 q -1.8063,2.64392 -3.38857,3.35565 -1.59288,0.68811 -3.7328,-0.12396 -2.43094,-0.92251 -3.15671,-3.29349 -0.7364,-2.3946 0.47846,-5.59591 1.24084,-3.26979 3.49857,-4.62608 2.25773,-1.35629 4.82563,-0.3818 l 0.0685,0.026 -1.1369,2.99588 q -1.49412,-0.44949 -2.69739,0.34731 -1.21389,0.77317 -1.92202,2.63918 -0.70812,1.866 -0.42789,3.08867 0.28673,1.20555 1.53644,1.6798 0.8902,0.33782 1.63116,-0.0665 0.73034,-0.42789 1.73713,-1.94554 l 1.83229,-2.7124 q 1.96161,-2.89835 3.5976,-3.64844 1.61887,-0.75658 3.79302,0.0685 2.85893,1.08493 3.68443,3.70918 0.81488,2.60065 -0.55589,6.21282 -1.33829,3.52658 -3.7371,4.79016 -2.39231,1.24646 -5.57888,0.096 z"
         style="font-style:normal;font-variant:normal;font-weight:normal;font-stretch:normal;font-size:37.5px;font-family:'Swis721 BT';-inkscape-font-specification:'Swis721 BT'"
         id="path4678"
         inkscape:connector-curvature="0" />
    </g>
  </g>
</svg>
